# Blender 4.3.1
# www.blender.org
mtllib gizmo.mtl
o Cylinder
v 0.000000 0.529812 -0.010580
v 0.000000 0.004221 -0.010580
v 0.002064 0.529812 -0.010377
v 0.002064 0.004221 -0.010377
v 0.004049 0.529812 -0.009775
v 0.004049 0.004221 -0.009775
v 0.005878 0.529812 -0.008797
v 0.005878 0.004221 -0.008797
v 0.007482 0.529812 -0.007482
v 0.007482 0.004221 -0.007482
v 0.008797 0.529812 -0.005878
v 0.008797 0.004221 -0.005878
v 0.009775 0.529812 -0.004049
v 0.009775 0.004221 -0.004049
v 0.010377 0.529812 -0.002064
v 0.010377 0.004221 -0.002064
v 0.010580 0.529812 0.000000
v 0.010580 0.004221 0.000000
v 0.010377 0.529812 0.002064
v 0.010377 0.004221 0.002064
v 0.009775 0.529812 0.004049
v 0.009775 0.004221 0.004049
v 0.008797 0.529812 0.005878
v 0.008797 0.004221 0.005878
v 0.007482 0.529812 0.007482
v 0.007482 0.004221 0.007482
v 0.005878 0.529812 0.008797
v 0.005878 0.004221 0.008797
v 0.004049 0.529812 0.009775
v 0.004049 0.004221 0.009775
v 0.002064 0.529812 0.010377
v 0.002064 0.004221 0.010377
v 0.000000 0.529812 0.010580
v 0.000000 0.004221 0.010580
v -0.002064 0.529812 0.010377
v -0.002064 0.004221 0.010377
v -0.004049 0.529812 0.009775
v -0.004049 0.004221 0.009775
v -0.005878 0.529812 0.008797
v -0.005878 0.004221 0.008797
v -0.007482 0.529812 0.007482
v -0.007482 0.004221 0.007482
v -0.008797 0.529812 0.005878
v -0.008797 0.004221 0.005878
v -0.009775 0.529812 0.004049
v -0.009775 0.004221 0.004049
v -0.010377 0.529812 0.002064
v -0.010377 0.004221 0.002064
v -0.010580 0.529812 0.000000
v -0.010580 0.004221 0.000000
v -0.010377 0.529812 -0.002064
v -0.010377 0.004221 -0.002064
v -0.009775 0.529812 -0.004049
v -0.009775 0.004221 -0.004049
v -0.008797 0.529812 -0.005878
v -0.008797 0.004221 -0.005878
v -0.007482 0.529812 -0.007482
v -0.007482 0.004221 -0.007482
v -0.005878 0.529812 -0.008797
v -0.005878 0.004221 -0.008797
v -0.004049 0.529812 -0.009775
v -0.004049 0.004221 -0.009775
v -0.002064 0.529812 -0.010377
v -0.002064 0.004221 -0.010377
v 0.000000 0.529812 -0.010580
v 0.002064 0.529812 -0.010377
v 0.004049 0.529812 -0.009775
v 0.005878 0.529812 -0.008797
v 0.007482 0.529812 -0.007482
v 0.008797 0.529812 -0.005878
v 0.009775 0.529812 -0.004049
v 0.010377 0.529812 -0.002064
v 0.010580 0.529812 0.000000
v 0.010377 0.529812 0.002064
v 0.009775 0.529812 0.004049
v 0.008797 0.529812 0.005878
v 0.007482 0.529812 0.007482
v 0.005878 0.529812 0.008797
v 0.004049 0.529812 0.009775
v 0.002064 0.529812 0.010377
v 0.000000 0.529812 0.010580
v -0.002064 0.529812 0.010377
v -0.004049 0.529812 0.009775
v -0.005878 0.529812 0.008797
v -0.007482 0.529812 0.007482
v -0.008797 0.529812 0.005878
v -0.009775 0.529812 0.004049
v -0.010377 0.529812 0.002064
v -0.010580 0.529812 0.000000
v -0.010377 0.529812 -0.002064
v -0.009775 0.529812 -0.004049
v -0.008797 0.529812 -0.005878
v -0.007482 0.529812 -0.007482
v -0.005878 0.529812 -0.008797
v -0.004049 0.529812 -0.009775
v -0.002064 0.529812 -0.010377
v -0.000000 0.529812 -0.015899
v 0.003102 0.529812 -0.015593
v 0.006084 0.529812 -0.014689
v 0.008833 0.529812 -0.013219
v 0.011242 0.529812 -0.011242
v 0.013219 0.529812 -0.008833
v 0.014689 0.529812 -0.006084
v 0.015593 0.529812 -0.003102
v 0.015899 0.529812 0.000000
v 0.015593 0.529812 0.003102
v 0.014689 0.529812 0.006084
v 0.013219 0.529812 0.008833
v 0.011242 0.529812 0.011242
v 0.008833 0.529812 0.013219
v 0.006084 0.529812 0.014689
v 0.003102 0.529812 0.015593
v -0.000000 0.529812 0.015899
v -0.003102 0.529812 0.015593
v -0.006084 0.529812 0.014689
v -0.008833 0.529812 0.013219
v -0.011242 0.529812 0.011242
v -0.013219 0.529812 0.008833
v -0.014689 0.529812 0.006084
v -0.015593 0.529812 0.003102
v -0.015899 0.529812 0.000000
v -0.015593 0.529812 -0.003102
v -0.014689 0.529812 -0.006084
v -0.013219 0.529812 -0.008833
v -0.011242 0.529812 -0.011242
v -0.008833 0.529812 -0.013219
v -0.006084 0.529812 -0.014689
v -0.003102 0.529812 -0.015593
v 0.000000 0.618363 0.000000
vn 0.0980 -0.0000 -0.9952
vn 0.2903 -0.0000 -0.9569
vn 0.4714 -0.0000 -0.8819
vn 0.6344 -0.0000 -0.7730
vn 0.7730 -0.0000 -0.6344
vn 0.8819 -0.0000 -0.4714
vn 0.9569 -0.0000 -0.2903
vn 0.9952 -0.0000 -0.0980
vn 0.9952 -0.0000 0.0980
vn 0.9569 -0.0000 0.2903
vn 0.8819 -0.0000 0.4714
vn 0.7730 -0.0000 0.6344
vn 0.6344 -0.0000 0.7730
vn 0.4714 -0.0000 0.8819
vn 0.2903 -0.0000 0.9569
vn 0.0980 -0.0000 0.9952
vn -0.0980 -0.0000 0.9952
vn -0.2903 -0.0000 0.9569
vn -0.4714 -0.0000 0.8819
vn -0.6344 -0.0000 0.7730
vn -0.7730 -0.0000 0.6344
vn -0.8819 -0.0000 0.4714
vn -0.9569 -0.0000 0.2903
vn -0.9952 -0.0000 0.0980
vn -0.9952 -0.0000 -0.0980
vn -0.9569 -0.0000 -0.2903
vn -0.8819 -0.0000 -0.4714
vn -0.7730 -0.0000 -0.6344
vn -0.6344 -0.0000 -0.7730
vn -0.4714 -0.0000 -0.8819
vn -0.0000 -1.0000 -0.0000
vn -0.2903 -0.0000 -0.9569
vn -0.0980 -0.0000 -0.9952
vn 0.0965 0.1759 0.9797
vn 0.4640 0.1759 -0.8682
vn -0.4640 0.1759 -0.8682
vn -0.0965 0.1759 0.9797
vn 0.6245 0.1759 -0.7610
vn -0.2858 0.1759 -0.9420
vn -0.2858 0.1759 0.9420
vn 0.7610 0.1759 -0.6245
vn -0.0965 0.1759 -0.9797
vn -0.4640 0.1759 0.8682
vn 0.8682 0.1759 -0.4640
vn -0.6245 0.1759 0.7610
vn 0.9420 0.1759 -0.2858
vn -0.7610 0.1759 0.6245
vn 0.9797 0.1759 -0.0965
vn -0.8682 0.1759 0.4640
vn 0.9797 0.1759 0.0965
vn -0.9420 0.1759 0.2858
vn 0.9420 0.1759 0.2858
vn -0.9797 0.1759 0.0965
vn 0.8682 0.1759 0.4640
vn -0.9797 0.1759 -0.0965
vn 0.7610 0.1759 0.6245
vn -0.9420 0.1759 -0.2858
vn 0.6245 0.1759 0.7610
vn -0.8682 0.1759 -0.4640
vn 0.4640 0.1759 0.8682
vn 0.0965 0.1759 -0.9797
vn -0.7610 0.1759 -0.6245
vn 0.2858 0.1759 0.9420
vn 0.2858 0.1759 -0.9420
vn -0.6245 0.1759 -0.7610
vt 0.697424 0.478362
vt 0.500000 0.478362
vt 0.500000 0.445590
vt 0.697424 0.445590
vt 0.500000 0.413447
vt 0.697424 0.413447
vt 0.500000 0.383169
vt 0.697424 0.383169
vt 0.500000 0.355920
vt 0.697424 0.355920
vt 0.500000 0.332746
vt 0.697424 0.332746
vt 0.894848 0.544859
vt 0.697424 0.544859
vt 0.697424 0.517610
vt 0.894848 0.517610
vt 0.697424 0.487332
vt 0.894848 0.487332
vt 0.697424 0.455189
vt 0.894848 0.455189
vt 0.697424 0.422416
vt 0.894848 0.422416
vt 0.697424 0.390273
vt 0.894848 0.390273
vt 0.697424 0.359995
vt 0.894848 0.359995
vt 0.697424 0.332746
vt 0.894848 0.332746
vt 0.894848 0.756972
vt 0.697424 0.756972
vt 0.697424 0.729723
vt 0.894848 0.729723
vt 0.697424 0.699445
vt 0.894848 0.699445
vt 0.697424 0.667302
vt 0.894848 0.667302
vt 0.697424 0.634529
vt 0.894848 0.634529
vt 0.697424 0.602386
vt 0.894848 0.602386
vt 0.697424 0.572108
vt 0.894848 0.572108
vt 0.697424 0.544859
vt 0.894848 0.544859
vt 0.697424 0.849667
vt 0.500000 0.849667
vt 0.500000 0.826493
vt 0.697424 0.826493
vt 0.500000 0.799244
vt 0.697424 0.799244
vt 0.500000 0.768966
vt 0.697424 0.768966
vt 0.500000 0.736823
vt 0.697424 0.736823
vt 0.500000 0.704050
vt 0.697424 0.704050
vt 0.500000 0.671908
vt 0.697424 0.671908
vt 0.500000 0.641630
vt 0.697424 0.641630
vt 0.500000 0.614380
vt 0.697424 0.614380
vt 0.500000 0.591206
vt 0.697424 0.591206
vt 0.500000 0.591206
vt 0.500000 0.568033
vt 0.697424 0.568033
vt 0.500000 0.540783
vt 0.697424 0.540783
vt 0.560316 0.295603
vt 0.537143 0.272429
vt 0.518935 0.245180
vt 0.506394 0.214902
vt 0.500000 0.182759
vt 0.500000 0.149987
vt 0.506394 0.117844
vt 0.518935 0.087566
vt 0.537143 0.060316
vt 0.560316 0.037143
vt 0.587566 0.018935
vt 0.617844 0.006394
vt 0.649987 0.000000
vt 0.682759 0.000000
vt 0.714902 0.006394
vt 0.745180 0.018935
vt 0.772430 0.037143
vt 0.795603 0.060316
vt 0.813811 0.087566
vt 0.826352 0.117844
vt 0.832746 0.149987
vt 0.832746 0.182759
vt 0.826352 0.214902
vt 0.813811 0.245180
vt 0.795603 0.272429
vt 0.772430 0.295603
vt 0.745180 0.313811
vt 0.714902 0.326352
vt 0.682759 0.332746
vt 0.649987 0.332746
vt 0.617844 0.326352
vt 0.587566 0.313811
vt 0.500000 0.510505
vt 0.697424 0.510505
vt 0.500000 0.500000
vt 0.397438 0.328807
vt 0.409979 0.298529
vt 0.490393 0.322922
vt 0.471547 0.368419
vt 0.471547 0.631581
vt 0.490393 0.677078
vt 0.250000 0.750000
vt 0.143943 0.120770
vt 0.120770 0.143943
vt 0.055812 0.090634
vt 0.090634 0.055812
vt 0.416373 0.266386
vt 0.500000 0.274623
vt 0.090021 0.298529
vt 0.102562 0.328807
vt 0.028453 0.368419
vt 0.009607 0.322922
vt 0.102562 0.171193
vt 0.028453 0.131581
vt 0.416373 0.233614
vt 0.500000 0.225377
vt 0.120770 0.356057
vt 0.055812 0.409366
vt 0.090021 0.201471
vt 0.009607 0.177078
vt 0.409979 0.201471
vt 0.490393 0.177078
vt 0.143943 0.379230
vt 0.090634 0.444188
vt 0.083627 0.233614
vt -0.000000 0.225377
vt 0.397438 0.171193
vt 0.471547 0.131581
vt 0.171193 0.397438
vt 0.131581 0.471547
vt 0.083627 0.266386
vt -0.000000 0.274623
vt 0.379230 0.143943
vt 0.444188 0.090634
vt 0.201471 0.409979
vt 0.177078 0.490393
vt 0.356057 0.120770
vt 0.409366 0.055812
vt 0.233614 0.416373
vt 0.225377 0.500000
vt 0.328807 0.102562
vt 0.368419 0.028453
vt 0.266386 0.416373
vt 0.274623 0.500000
vt 0.298529 0.090021
vt 0.322922 0.009607
vt 0.298529 0.409979
vt 0.322922 0.490393
vt 0.266386 0.083627
vt 0.274623 0.000000
vt 0.328807 0.397438
vt 0.368419 0.471547
vt 0.233614 0.083627
vt 0.225377 0.000000
vt 0.356057 0.379230
vt 0.409366 0.444188
vt 0.201471 0.090021
vt 0.177078 0.009607
vt 0.379230 0.356057
vt 0.444188 0.409366
vt 0.171193 0.102562
vt 0.131581 0.028453
vt -0.000000 0.725377
vt 0.009607 0.677078
vt 0.090634 0.944188
vt 0.055812 0.909366
vt 0.500000 0.725377
vt 0.028453 0.631581
vt 0.028453 0.868419
vt 0.500000 0.774623
vt 0.055812 0.590634
vt 0.009607 0.822922
vt 0.490393 0.822922
vt 0.090634 0.555812
vt 0.471547 0.868419
vt 0.131581 0.528453
vt 0.444188 0.909366
vt 0.177078 0.509607
vt 0.409366 0.944188
vt 0.225377 0.500000
vt 0.368419 0.971547
vt 0.274623 0.500000
vt 0.322922 0.990393
vt 0.322922 0.509607
vt 0.274623 1.000000
vt 0.368419 0.528453
vt 0.225377 1.000000
vt 0.409366 0.555812
vt 0.177078 0.990393
vt 0.444188 0.590634
vt -0.000000 0.774623
vt 0.131581 0.971547
s 0
usemtl Material
f 1/1/1 3/4/1 4/3/1 2/2/1
f 3/4/2 5/6/2 6/5/2 4/3/2
f 5/6/3 7/8/3 8/7/3 6/5/3
f 7/8/4 9/10/4 10/9/4 8/7/4
f 9/10/5 11/12/5 12/11/5 10/9/5
f 11/13/6 13/16/6 14/15/6 12/14/6
f 13/16/7 15/18/7 16/17/7 14/15/7
f 15/18/8 17/20/8 18/19/8 16/17/8
f 17/20/9 19/22/9 20/21/9 18/19/9
f 19/22/10 21/24/10 22/23/10 20/21/10
f 21/24/11 23/26/11 24/25/11 22/23/11
f 23/26/12 25/28/12 26/27/12 24/25/12
f 25/29/13 27/32/13 28/31/13 26/30/13
f 27/32/14 29/34/14 30/33/14 28/31/14
f 29/34/15 31/36/15 32/35/15 30/33/15
f 31/36/16 33/38/16 34/37/16 32/35/16
f 33/38/17 35/40/17 36/39/17 34/37/17
f 35/40/18 37/42/18 38/41/18 36/39/18
f 37/42/19 39/44/19 40/43/19 38/41/19
f 39/45/20 41/48/20 42/47/20 40/46/20
f 41/48/21 43/50/21 44/49/21 42/47/21
f 43/50/22 45/52/22 46/51/22 44/49/22
f 45/52/23 47/54/23 48/53/23 46/51/23
f 47/54/24 49/56/24 50/55/24 48/53/24
f 49/56/25 51/58/25 52/57/25 50/55/25
f 51/58/26 53/60/26 54/59/26 52/57/26
f 53/60/27 55/62/27 56/61/27 54/59/27
f 55/62/28 57/64/28 58/63/28 56/61/28
f 57/64/29 59/67/29 60/66/29 58/65/29
f 59/67/30 61/69/30 62/68/30 60/66/30
f 4/70/31 6/101/31 8/100/31 10/99/31 12/98/31 14/97/31 16/96/31 18/95/31 20/94/31 22/93/31 24/92/31 26/91/31 28/90/31 30/89/31 32/88/31 34/87/31 36/86/31 38/85/31 40/84/31 42/83/31 44/82/31 46/81/31 48/80/31 50/79/31 52/78/31 54/77/31 56/76/31 58/75/31 60/74/31 62/73/31 64/72/31 2/71/31
f 61/69/32 63/103/32 64/102/32 62/68/32
f 63/103/33 1/1/33 2/2/33 64/102/33
f 19/104/31 74/104/31 75/104/31 21/104/31
f 77/105/31 109/108/31 110/107/31 78/106/31
f 37/104/31 83/104/31 84/104/31 39/104/31
f 55/104/31 92/104/31 93/104/31 57/104/31
f 11/104/31 70/104/31 71/104/31 13/104/31
f 29/104/31 79/104/31 80/104/31 31/104/31
f 47/104/31 88/104/31 89/104/31 49/104/31
f 3/104/31 66/104/31 67/104/31 5/104/31
f 21/104/31 75/104/31 76/104/31 23/104/31
f 39/104/31 84/104/31 85/104/31 41/104/31
f 57/104/31 93/104/31 94/104/31 59/104/31
f 13/104/31 71/104/31 72/104/31 15/104/31
f 31/104/31 80/104/31 81/104/31 33/104/31
f 49/104/31 89/104/31 90/104/31 51/104/31
f 5/104/31 67/104/31 68/104/31 7/104/31
f 23/104/31 76/104/31 77/104/31 25/104/31
f 41/104/31 85/104/31 86/104/31 43/104/31
f 59/104/31 94/104/31 95/104/31 61/104/31
f 15/104/31 72/104/31 73/104/31 17/104/31
f 33/104/31 81/104/31 82/104/31 35/104/31
f 51/104/31 90/104/31 91/104/31 53/104/31
f 7/104/31 68/104/31 69/104/31 9/104/31
f 25/104/31 77/104/31 78/104/31 27/104/31
f 43/104/31 86/104/31 87/104/31 45/104/31
f 61/104/31 95/104/31 96/104/31 63/104/31
f 17/104/31 73/104/31 74/104/31 19/104/31
f 35/104/31 82/104/31 83/104/31 37/104/31
f 53/104/31 91/104/31 92/104/31 55/104/31
f 9/104/31 69/104/31 70/104/31 11/104/31
f 27/104/31 78/104/31 79/104/31 29/104/31
f 45/104/31 87/104/31 88/104/31 47/104/31
f 1/104/31 65/104/31 66/104/31 3/104/31
f 63/104/31 96/104/31 65/104/31 1/104/31
f 112/109/34 129/111/34 113/110/34
f 91/112/31 123/115/31 124/114/31 92/113/31
f 78/106/31 110/107/31 111/117/31 79/116/31
f 65/118/31 97/121/31 98/120/31 66/119/31
f 92/113/31 124/114/31 125/123/31 93/122/31
f 79/116/31 111/117/31 112/125/31 80/124/31
f 66/119/31 98/120/31 99/127/31 67/126/31
f 93/122/31 125/123/31 126/129/31 94/128/31
f 80/124/31 112/125/31 113/131/31 81/130/31
f 67/126/31 99/127/31 100/133/31 68/132/31
f 94/128/31 126/129/31 127/135/31 95/134/31
f 81/130/31 113/131/31 114/137/31 82/136/31
f 68/132/31 100/133/31 101/139/31 69/138/31
f 95/134/31 127/135/31 128/141/31 96/140/31
f 82/136/31 114/137/31 115/143/31 83/142/31
f 69/138/31 101/139/31 102/145/31 70/144/31
f 96/140/31 128/141/31 97/121/31 65/118/31
f 83/142/31 115/143/31 116/147/31 84/146/31
f 70/144/31 102/145/31 103/149/31 71/148/31
f 84/146/31 116/147/31 117/151/31 85/150/31
f 71/148/31 103/149/31 104/153/31 72/152/31
f 85/150/31 117/151/31 118/155/31 86/154/31
f 72/152/31 104/153/31 105/157/31 73/156/31
f 86/154/31 118/155/31 119/159/31 87/158/31
f 73/156/31 105/157/31 106/161/31 74/160/31
f 87/158/31 119/159/31 120/163/31 88/162/31
f 74/160/31 106/161/31 107/165/31 75/164/31
f 88/162/31 120/163/31 121/167/31 89/166/31
f 75/164/31 107/165/31 108/169/31 76/168/31
f 89/166/31 121/167/31 122/171/31 90/170/31
f 76/168/31 108/169/31 109/108/31 77/105/31
f 90/170/31 122/171/31 123/115/31 91/112/31
f 99/172/35 129/111/35 100/173/35
f 126/174/36 129/111/36 127/175/36
f 113/110/37 129/111/37 114/176/37
f 100/173/38 129/111/38 101/177/38
f 127/175/39 129/111/39 128/178/39
f 114/176/40 129/111/40 115/179/40
f 101/177/41 129/111/41 102/180/41
f 128/178/42 129/111/42 97/181/42
f 115/179/43 129/111/43 116/182/43
f 102/180/44 129/111/44 103/183/44
f 116/182/45 129/111/45 117/184/45
f 103/183/46 129/111/46 104/185/46
f 117/184/47 129/111/47 118/186/47
f 104/185/48 129/111/48 105/187/48
f 118/186/49 129/111/49 119/188/49
f 105/187/50 129/111/50 106/189/50
f 119/188/51 129/111/51 120/190/51
f 106/189/52 129/111/52 107/191/52
f 120/190/53 129/111/53 121/192/53
f 107/191/54 129/111/54 108/193/54
f 121/192/55 129/111/55 122/194/55
f 108/193/56 129/111/56 109/195/56
f 122/194/57 129/111/57 123/196/57
f 109/195/58 129/111/58 110/197/58
f 123/196/59 129/111/59 124/198/59
f 110/197/60 129/111/60 111/199/60
f 97/181/61 129/111/61 98/200/61
f 124/198/62 129/111/62 125/201/62
f 111/199/63 129/111/63 112/109/63
f 98/200/64 129/111/64 99/172/64
f 125/201/65 129/111/65 126/174/65
