# Blender 4.4.0
# www.blender.org
mtllib rotateGizmoBlue.mtl
o Torus
v 0.262500 0.000000 0.000000
v 0.260825 0.006250 -0.000000
v 0.256250 0.010825 -0.000000
v 0.250000 0.012500 -0.000000
v 0.243750 0.010825 -0.000000
v 0.239175 0.006250 -0.000000
v 0.237500 0.000000 0.000000
v 0.239175 -0.006250 0.000000
v 0.243750 -0.010825 0.000000
v 0.250000 -0.012500 0.000000
v 0.256250 -0.010825 0.000000
v 0.260825 -0.006250 0.000000
v 0.260254 -0.000000 -0.034263
v 0.258594 0.006250 -0.034045
v 0.254058 0.010825 -0.033447
v 0.247861 0.012500 -0.032632
v 0.241665 0.010825 -0.031816
v 0.237129 0.006250 -0.031219
v 0.235468 -0.000000 -0.031000
v 0.237129 -0.006250 -0.031219
v 0.241665 -0.010825 -0.031816
v 0.247861 -0.012500 -0.032632
v 0.254058 -0.010825 -0.033447
v 0.258594 -0.006250 -0.034045
v 0.253556 -0.000000 -0.067940
v 0.251938 0.006250 -0.067507
v 0.247518 0.010825 -0.066322
v 0.241481 0.012500 -0.064705
v 0.235444 0.010825 -0.063087
v 0.231025 0.006250 -0.061903
v 0.229407 -0.000000 -0.061470
v 0.231025 -0.006250 -0.061903
v 0.235444 -0.010825 -0.063087
v 0.241481 -0.012500 -0.064705
v 0.247518 -0.010825 -0.066322
v 0.251938 -0.006250 -0.067507
v 0.242518 -0.000000 -0.100454
v 0.240971 0.006250 -0.099814
v 0.236744 0.010825 -0.098063
v 0.230970 0.012500 -0.095671
v 0.225196 0.010825 -0.093279
v 0.220969 0.006250 -0.091528
v 0.219421 -0.000000 -0.090887
v 0.220969 -0.006250 -0.091528
v 0.225196 -0.010825 -0.093279
v 0.230970 -0.012500 -0.095671
v 0.236744 -0.010825 -0.098063
v 0.240971 -0.006250 -0.099814
v 0.227332 -0.000000 -0.131250
v 0.225881 0.006250 -0.130413
v 0.221919 0.010825 -0.128125
v 0.216506 0.012500 -0.125000
v 0.211094 0.010825 -0.121875
v 0.207131 0.006250 -0.119587
v 0.205681 -0.000000 -0.118750
v 0.207131 -0.006250 -0.119587
v 0.211094 -0.010825 -0.121875
v 0.216506 -0.012500 -0.125000
v 0.221919 -0.010825 -0.128125
v 0.225881 -0.006250 -0.130413
v 0.208255 -0.000000 -0.159800
v 0.206927 0.006250 -0.158780
v 0.203297 0.010825 -0.155995
v 0.198338 0.012500 -0.152190
v 0.193380 0.010825 -0.148386
v 0.189750 0.006250 -0.145600
v 0.188421 -0.000000 -0.144581
v 0.189750 -0.006250 -0.145600
v 0.193380 -0.010825 -0.148386
v 0.198338 -0.012500 -0.152190
v 0.203297 -0.010825 -0.155995
v 0.206927 -0.006250 -0.158780
v 0.185616 -0.000000 -0.185616
v 0.184431 0.006250 -0.184431
v 0.181196 0.010825 -0.181196
v 0.176777 0.012500 -0.176777
v 0.172357 0.010825 -0.172357
v 0.169122 0.006250 -0.169122
v 0.167938 -0.000000 -0.167938
v 0.169122 -0.006250 -0.169122
v 0.172357 -0.010825 -0.172357
v 0.176777 -0.012500 -0.176777
v 0.181196 -0.010825 -0.181196
v 0.184431 -0.006250 -0.184431
v 0.159800 -0.000000 -0.208255
v 0.158780 0.006250 -0.206927
v 0.155995 0.010825 -0.203297
v 0.152190 0.012500 -0.198338
v 0.148386 0.010825 -0.193380
v 0.145600 0.006250 -0.189750
v 0.144581 -0.000000 -0.188421
v 0.145600 -0.006250 -0.189750
v 0.148386 -0.010825 -0.193380
v 0.152190 -0.012500 -0.198338
v 0.155995 -0.010825 -0.203297
v 0.158780 -0.006250 -0.206927
v 0.131250 -0.000000 -0.227332
v 0.130413 0.006250 -0.225881
v 0.128125 0.010825 -0.221919
v 0.125000 0.012500 -0.216506
v 0.121875 0.010825 -0.211094
v 0.119587 0.006250 -0.207131
v 0.118750 -0.000000 -0.205681
v 0.119587 -0.006250 -0.207131
v 0.121875 -0.010825 -0.211094
v 0.125000 -0.012500 -0.216506
v 0.128125 -0.010825 -0.221919
v 0.130413 -0.006250 -0.225881
v 0.100454 -0.000000 -0.242518
v 0.099814 0.006250 -0.240971
v 0.098063 0.010825 -0.236744
v 0.095671 0.012500 -0.230970
v 0.093279 0.010825 -0.225196
v 0.091528 0.006250 -0.220969
v 0.090887 -0.000000 -0.219421
v 0.091528 -0.006250 -0.220969
v 0.093279 -0.010825 -0.225196
v 0.095671 -0.012500 -0.230970
v 0.098063 -0.010825 -0.236744
v 0.099814 -0.006250 -0.240971
v 0.067940 -0.000000 -0.253556
v 0.067507 0.006250 -0.251938
v 0.066322 0.010825 -0.247518
v 0.064705 0.012500 -0.241481
v 0.063087 0.010825 -0.235444
v 0.061903 0.006250 -0.231025
v 0.061470 -0.000000 -0.229407
v 0.061903 -0.006250 -0.231025
v 0.063087 -0.010825 -0.235444
v 0.064705 -0.012500 -0.241481
v 0.066322 -0.010825 -0.247518
v 0.067507 -0.006250 -0.251938
v 0.034263 -0.000000 -0.260254
v 0.034044 0.006250 -0.258594
v 0.033447 0.010825 -0.254058
v 0.032632 0.012500 -0.247861
v 0.031816 0.010825 -0.241665
v 0.031219 0.006250 -0.237129
v 0.031000 -0.000000 -0.235468
v 0.031219 -0.006250 -0.237129
v 0.031816 -0.010825 -0.241665
v 0.032632 -0.012500 -0.247861
v 0.033447 -0.010825 -0.254058
v 0.034044 -0.006250 -0.258594
v 0.000000 -0.000000 -0.262500
v 0.000000 0.006250 -0.260825
v 0.000000 0.010825 -0.256250
v 0.000000 0.012500 -0.250000
v 0.000000 0.010825 -0.243750
v 0.000000 0.006250 -0.239175
v 0.000000 -0.000000 -0.237500
v 0.000000 -0.006250 -0.239175
v 0.000000 -0.010825 -0.243750
v 0.000000 -0.012500 -0.250000
v 0.000000 -0.010825 -0.256250
v 0.000000 -0.006250 -0.260825
v -0.034263 -0.000000 -0.260254
v -0.034045 0.006250 -0.258594
v -0.033447 0.010825 -0.254058
v -0.032632 0.012500 -0.247861
v -0.031816 0.010825 -0.241665
v -0.031219 0.006250 -0.237128
v -0.031000 -0.000000 -0.235468
v -0.031219 -0.006250 -0.237128
v -0.031816 -0.010825 -0.241665
v -0.032632 -0.012500 -0.247861
v -0.033447 -0.010825 -0.254058
v -0.034045 -0.006250 -0.258594
v -0.067940 -0.000000 -0.253556
v -0.067507 0.006250 -0.251938
v -0.066322 0.010825 -0.247518
v -0.064705 0.012500 -0.241481
v -0.063087 0.010825 -0.235444
v -0.061903 0.006250 -0.231025
v -0.061469 -0.000000 -0.229407
v -0.061903 -0.006250 -0.231025
v -0.063087 -0.010825 -0.235444
v -0.064705 -0.012500 -0.241481
v -0.066322 -0.010825 -0.247518
v -0.067507 -0.006250 -0.251938
v -0.100454 -0.000000 -0.242518
v -0.099814 0.006250 -0.240971
v -0.098063 0.010825 -0.236744
v -0.095671 0.012500 -0.230970
v -0.093279 0.010825 -0.225196
v -0.091528 0.006250 -0.220969
v -0.090887 -0.000000 -0.219421
v -0.091528 -0.006250 -0.220969
v -0.093279 -0.010825 -0.225196
v -0.095671 -0.012500 -0.230970
v -0.098063 -0.010825 -0.236744
v -0.099814 -0.006250 -0.240971
v -0.131250 -0.000000 -0.227332
v -0.130413 0.006250 -0.225881
v -0.128125 0.010825 -0.221919
v -0.125000 0.012500 -0.216506
v -0.121875 0.010825 -0.211094
v -0.119587 0.006250 -0.207131
v -0.118750 -0.000000 -0.205681
v -0.119587 -0.006250 -0.207131
v -0.121875 -0.010825 -0.211094
v -0.125000 -0.012500 -0.216506
v -0.128125 -0.010825 -0.221919
v -0.130413 -0.006250 -0.225881
v -0.159800 -0.000000 -0.208255
v -0.158780 0.006250 -0.206927
v -0.155995 0.010825 -0.203297
v -0.152190 0.012500 -0.198338
v -0.148386 0.010825 -0.193380
v -0.145600 0.006250 -0.189750
v -0.144581 -0.000000 -0.188421
v -0.145600 -0.006250 -0.189750
v -0.148386 -0.010825 -0.193380
v -0.152190 -0.012500 -0.198338
v -0.155995 -0.010825 -0.203297
v -0.158780 -0.006250 -0.206927
v -0.185616 -0.000000 -0.185615
v -0.184431 0.006250 -0.184431
v -0.181196 0.010825 -0.181196
v -0.176777 0.012500 -0.176777
v -0.172357 0.010825 -0.172357
v -0.169122 0.006250 -0.169122
v -0.167938 -0.000000 -0.167938
v -0.169122 -0.006250 -0.169122
v -0.172357 -0.010825 -0.172357
v -0.176777 -0.012500 -0.176777
v -0.181196 -0.010825 -0.181196
v -0.184431 -0.006250 -0.184431
v -0.208255 -0.000000 -0.159800
v -0.206927 0.006250 -0.158780
v -0.203297 0.010825 -0.155995
v -0.198338 0.012500 -0.152190
v -0.193380 0.010825 -0.148386
v -0.189750 0.006250 -0.145600
v -0.188421 -0.000000 -0.144581
v -0.189750 -0.006250 -0.145600
v -0.193380 -0.010825 -0.148386
v -0.198338 -0.012500 -0.152190
v -0.203297 -0.010825 -0.155995
v -0.206927 -0.006250 -0.158780
v -0.227332 -0.000000 -0.131250
v -0.225881 0.006250 -0.130413
v -0.221919 0.010825 -0.128125
v -0.216506 0.012500 -0.125000
v -0.211094 0.010825 -0.121875
v -0.207131 0.006250 -0.119587
v -0.205681 -0.000000 -0.118750
v -0.207131 -0.006250 -0.119587
v -0.211094 -0.010825 -0.121875
v -0.216506 -0.012500 -0.125000
v -0.221919 -0.010825 -0.128125
v -0.225881 -0.006250 -0.130413
v -0.242518 -0.000000 -0.100454
v -0.240971 0.006250 -0.099814
v -0.236744 0.010825 -0.098063
v -0.230970 0.012500 -0.095671
v -0.225196 0.010825 -0.093279
v -0.220969 0.006250 -0.091528
v -0.219421 -0.000000 -0.090887
v -0.220969 -0.006250 -0.091528
v -0.225196 -0.010825 -0.093279
v -0.230970 -0.012500 -0.095671
v -0.236744 -0.010825 -0.098063
v -0.240971 -0.006250 -0.099814
v -0.253556 -0.000000 -0.067940
v -0.251938 0.006250 -0.067507
v -0.247518 0.010825 -0.066322
v -0.241481 0.012500 -0.064705
v -0.235444 0.010825 -0.063087
v -0.231025 0.006250 -0.061903
v -0.229407 -0.000000 -0.061469
v -0.231025 -0.006250 -0.061903
v -0.235444 -0.010825 -0.063087
v -0.241481 -0.012500 -0.064705
v -0.247518 -0.010825 -0.066322
v -0.251938 -0.006250 -0.067507
v -0.260254 -0.000000 -0.034263
v -0.258594 0.006250 -0.034045
v -0.254058 0.010825 -0.033447
v -0.247861 0.012500 -0.032632
v -0.241665 0.010825 -0.031816
v -0.237128 0.006250 -0.031219
v -0.235468 -0.000000 -0.031000
v -0.237128 -0.006250 -0.031219
v -0.241665 -0.010825 -0.031816
v -0.247861 -0.012500 -0.032632
v -0.254058 -0.010825 -0.033447
v -0.258594 -0.006250 -0.034045
v -0.262500 0.000000 0.000000
v -0.260825 0.006250 -0.000000
v -0.256250 0.010825 -0.000000
v -0.250000 0.012500 -0.000000
v -0.243750 0.010825 -0.000000
v -0.239175 0.006250 -0.000000
v -0.237500 0.000000 0.000000
v -0.239175 -0.006250 0.000000
v -0.243750 -0.010825 0.000000
v -0.250000 -0.012500 0.000000
v -0.256250 -0.010825 0.000000
v -0.260825 -0.006250 0.000000
v -0.260254 0.000000 0.034263
v -0.258594 0.006250 0.034045
v -0.254058 0.010825 0.033447
v -0.247861 0.012500 0.032632
v -0.241665 0.010825 0.031816
v -0.237128 0.006250 0.031219
v -0.235468 0.000000 0.031000
v -0.237128 -0.006250 0.031219
v -0.241665 -0.010825 0.031816
v -0.247861 -0.012500 0.032632
v -0.254058 -0.010825 0.033447
v -0.258594 -0.006250 0.034045
v -0.253556 0.000000 0.067940
v -0.251938 0.006250 0.067507
v -0.247518 0.010825 0.066322
v -0.241481 0.012500 0.064705
v -0.235444 0.010825 0.063087
v -0.231025 0.006250 0.061903
v -0.229407 0.000000 0.061469
v -0.231025 -0.006250 0.061903
v -0.235444 -0.010825 0.063087
v -0.241481 -0.012500 0.064705
v -0.247518 -0.010825 0.066322
v -0.251938 -0.006250 0.067507
v -0.242518 0.000000 0.100454
v -0.240971 0.006250 0.099813
v -0.236744 0.010825 0.098063
v -0.230970 0.012500 0.095671
v -0.225196 0.010825 0.093279
v -0.220969 0.006250 0.091528
v -0.219421 0.000000 0.090887
v -0.220969 -0.006250 0.091528
v -0.225196 -0.010825 0.093279
v -0.230970 -0.012500 0.095671
v -0.236744 -0.010825 0.098063
v -0.240971 -0.006250 0.099813
v -0.227332 0.000000 0.131250
v -0.225881 0.006250 0.130413
v -0.221919 0.010825 0.128125
v -0.216506 0.012500 0.125000
v -0.211094 0.010825 0.121875
v -0.207131 0.006250 0.119587
v -0.205681 0.000000 0.118750
v -0.207131 -0.006250 0.119587
v -0.211094 -0.010825 0.121875
v -0.216506 -0.012500 0.125000
v -0.221919 -0.010825 0.128125
v -0.225881 -0.006250 0.130413
v -0.208255 0.000000 0.159800
v -0.206927 0.006250 0.158780
v -0.203297 0.010825 0.155995
v -0.198338 0.012500 0.152190
v -0.193380 0.010825 0.148386
v -0.189750 0.006250 0.145600
v -0.188421 0.000000 0.144581
v -0.189750 -0.006250 0.145600
v -0.193380 -0.010825 0.148386
v -0.198338 -0.012500 0.152190
v -0.203297 -0.010825 0.155995
v -0.206927 -0.006250 0.158780
v -0.185616 0.000000 0.185615
v -0.184431 0.006250 0.184431
v -0.181196 0.010825 0.181196
v -0.176777 0.012500 0.176777
v -0.172357 0.010825 0.172357
v -0.169122 0.006250 0.169122
v -0.167938 0.000000 0.167938
v -0.169122 -0.006250 0.169122
v -0.172357 -0.010825 0.172357
v -0.176777 -0.012500 0.176777
v -0.181196 -0.010825 0.181196
v -0.184431 -0.006250 0.184431
v -0.159800 0.000000 0.208255
v -0.158781 0.006250 0.206927
v -0.155995 0.010825 0.203297
v -0.152190 0.012500 0.198338
v -0.148386 0.010825 0.193380
v -0.145600 0.006250 0.189750
v -0.144581 0.000000 0.188421
v -0.145600 -0.006250 0.189750
v -0.148386 -0.010825 0.193380
v -0.152190 -0.012500 0.198338
v -0.155995 -0.010825 0.203297
v -0.158781 -0.006250 0.206927
v -0.131250 0.000000 0.227332
v -0.130413 0.006250 0.225881
v -0.128125 0.010825 0.221919
v -0.125000 0.012500 0.216506
v -0.121875 0.010825 0.211094
v -0.119587 0.006250 0.207131
v -0.118750 0.000000 0.205681
v -0.119587 -0.006250 0.207131
v -0.121875 -0.010825 0.211094
v -0.125000 -0.012500 0.216506
v -0.128125 -0.010825 0.221919
v -0.130413 -0.006250 0.225881
v -0.100454 0.000000 0.242518
v -0.099814 0.006250 0.240971
v -0.098063 0.010825 0.236744
v -0.095671 0.012500 0.230970
v -0.093279 0.010825 0.225196
v -0.091528 0.006250 0.220969
v -0.090887 0.000000 0.219421
v -0.091528 -0.006250 0.220969
v -0.093279 -0.010825 0.225196
v -0.095671 -0.012500 0.230970
v -0.098063 -0.010825 0.236744
v -0.099814 -0.006250 0.240971
v -0.067940 0.000000 0.253556
v -0.067507 0.006250 0.251938
v -0.066322 0.010825 0.247518
v -0.064705 0.012500 0.241481
v -0.063087 0.010825 0.235444
v -0.061903 0.006250 0.231025
v -0.061470 0.000000 0.229407
v -0.061903 -0.006250 0.231025
v -0.063087 -0.010825 0.235444
v -0.064705 -0.012500 0.241481
v -0.066322 -0.010825 0.247518
v -0.067507 -0.006250 0.251938
v -0.034263 0.000000 0.260254
v -0.034045 0.006250 0.258594
v -0.033447 0.010825 0.254058
v -0.032632 0.012500 0.247861
v -0.031816 0.010825 0.241665
v -0.031219 0.006250 0.237128
v -0.031000 0.000000 0.235468
v -0.031219 -0.006250 0.237128
v -0.031816 -0.010825 0.241665
v -0.032632 -0.012500 0.247861
v -0.033447 -0.010825 0.254058
v -0.034045 -0.006250 0.258594
v 0.000000 0.000000 0.262500
v 0.000000 0.006250 0.260825
v 0.000000 0.010825 0.256250
v 0.000000 0.012500 0.250000
v 0.000000 0.010825 0.243750
v 0.000000 0.006250 0.239175
v 0.000000 0.000000 0.237500
v 0.000000 -0.006250 0.239175
v 0.000000 -0.010825 0.243750
v 0.000000 -0.012500 0.250000
v 0.000000 -0.010825 0.256250
v 0.000000 -0.006250 0.260825
v 0.034263 0.000000 0.260254
v 0.034044 0.006250 0.258594
v 0.033447 0.010825 0.254058
v 0.032632 0.012500 0.247861
v 0.031816 0.010825 0.241665
v 0.031219 0.006250 0.237129
v 0.031000 0.000000 0.235468
v 0.031219 -0.006250 0.237129
v 0.031816 -0.010825 0.241665
v 0.032632 -0.012500 0.247861
v 0.033447 -0.010825 0.254058
v 0.034044 -0.006250 0.258594
v 0.067940 0.000000 0.253556
v 0.067506 0.006250 0.251938
v 0.066322 0.010825 0.247519
v 0.064705 0.012500 0.241481
v 0.063087 0.010825 0.235444
v 0.061903 0.006250 0.231025
v 0.061469 0.000000 0.229407
v 0.061903 -0.006250 0.231025
v 0.063087 -0.010825 0.235444
v 0.064705 -0.012500 0.241481
v 0.066322 -0.010825 0.247519
v 0.067506 -0.006250 0.251938
v 0.100454 0.000000 0.242518
v 0.099814 0.006250 0.240971
v 0.098063 0.010825 0.236744
v 0.095671 0.012500 0.230970
v 0.093279 0.010825 0.225196
v 0.091528 0.006250 0.220969
v 0.090887 0.000000 0.219421
v 0.091528 -0.006250 0.220969
v 0.093279 -0.010825 0.225196
v 0.095671 -0.012500 0.230970
v 0.098063 -0.010825 0.236744
v 0.099814 -0.006250 0.240971
v 0.131250 0.000000 0.227332
v 0.130413 0.006250 0.225881
v 0.128125 0.010825 0.221919
v 0.125000 0.012500 0.216506
v 0.121875 0.010825 0.211094
v 0.119587 0.006250 0.207131
v 0.118750 0.000000 0.205681
v 0.119587 -0.006250 0.207131
v 0.121875 -0.010825 0.211094
v 0.125000 -0.012500 0.216506
v 0.128125 -0.010825 0.221919
v 0.130413 -0.006250 0.225881
v 0.159800 0.000000 0.208255
v 0.158780 0.006250 0.206927
v 0.155995 0.010825 0.203297
v 0.152190 0.012500 0.198338
v 0.148386 0.010825 0.193380
v 0.145600 0.006250 0.189750
v 0.144581 0.000000 0.188421
v 0.145600 -0.006250 0.189750
v 0.148386 -0.010825 0.193380
v 0.152190 -0.012500 0.198338
v 0.155995 -0.010825 0.203297
v 0.158780 -0.006250 0.206927
v 0.185615 0.000000 0.185616
v 0.184431 0.006250 0.184431
v 0.181196 0.010825 0.181196
v 0.176777 0.012500 0.176777
v 0.172357 0.010825 0.172357
v 0.169122 0.006250 0.169122
v 0.167938 0.000000 0.167938
v 0.169122 -0.006250 0.169122
v 0.172357 -0.010825 0.172357
v 0.176777 -0.012500 0.176777
v 0.181196 -0.010825 0.181196
v 0.184431 -0.006250 0.184431
v 0.208255 0.000000 0.159800
v 0.206927 0.006250 0.158780
v 0.203297 0.010825 0.155995
v 0.198338 0.012500 0.152190
v 0.193380 0.010825 0.148386
v 0.189750 0.006250 0.145600
v 0.188421 0.000000 0.144581
v 0.189750 -0.006250 0.145600
v 0.193380 -0.010825 0.148386
v 0.198338 -0.012500 0.152190
v 0.203297 -0.010825 0.155995
v 0.206927 -0.006250 0.158780
v 0.227332 0.000000 0.131250
v 0.225881 0.006250 0.130413
v 0.221919 0.010825 0.128125
v 0.216506 0.012500 0.125000
v 0.211094 0.010825 0.121875
v 0.207131 0.006250 0.119587
v 0.205681 0.000000 0.118750
v 0.207131 -0.006250 0.119587
v 0.211094 -0.010825 0.121875
v 0.216506 -0.012500 0.125000
v 0.221919 -0.010825 0.128125
v 0.225881 -0.006250 0.130413
v 0.242518 0.000000 0.100454
v 0.240971 0.006250 0.099814
v 0.236744 0.010825 0.098063
v 0.230970 0.012500 0.095671
v 0.225196 0.010825 0.093279
v 0.220969 0.006250 0.091528
v 0.219421 0.000000 0.090887
v 0.220969 -0.006250 0.091528
v 0.225196 -0.010825 0.093279
v 0.230970 -0.012500 0.095671
v 0.236744 -0.010825 0.098063
v 0.240971 -0.006250 0.099814
v 0.253556 0.000000 0.067940
v 0.251938 0.006250 0.067506
v 0.247518 0.010825 0.066322
v 0.241481 0.012500 0.064705
v 0.235444 0.010825 0.063087
v 0.231025 0.006250 0.061903
v 0.229407 0.000000 0.061469
v 0.231025 -0.006250 0.061903
v 0.235444 -0.010825 0.063087
v 0.241481 -0.012500 0.064705
v 0.247518 -0.010825 0.066322
v 0.251938 -0.006250 0.067506
v 0.260254 0.000000 0.034263
v 0.258594 0.006250 0.034045
v 0.254058 0.010825 0.033447
v 0.247861 0.012500 0.032632
v 0.241665 0.010825 0.031816
v 0.237129 0.006250 0.031219
v 0.235468 0.000000 0.031000
v 0.237129 -0.006250 0.031219
v 0.241665 -0.010825 0.031816
v 0.247861 -0.012500 0.032632
v 0.254058 -0.010825 0.033447
v 0.258594 -0.006250 0.034045
vn 1.0000 -0.0000 -0.0000
vn 0.9914 -0.0000 -0.1305
vn 0.8612 0.4954 -0.1134
vn 0.8687 0.4954 -0.0000
vn 0.5036 0.8614 -0.0663
vn 0.5080 0.8614 -0.0000
vn 0.0107 0.9999 -0.0014
vn 0.0108 0.9999 -0.0000
vn -0.4876 0.8707 0.0642
vn -0.4919 0.8707 -0.0000
vn -0.8559 0.5048 0.1127
vn -0.8633 0.5048 -0.0000
vn -0.9914 -0.0000 0.1305
vn -1.0000 -0.0000 -0.0000
vn -0.8559 -0.5048 0.1127
vn -0.8633 -0.5048 -0.0000
vn -0.4876 -0.8707 0.0642
vn -0.4919 -0.8707 -0.0000
vn 0.0107 -0.9999 -0.0014
vn 0.0108 -0.9999 -0.0000
vn 0.5036 -0.8614 -0.0663
vn 0.5080 -0.8614 -0.0000
vn 0.8612 -0.4954 -0.1134
vn 0.8687 -0.4954 -0.0000
vn 0.9659 -0.0000 -0.2588
vn 0.8391 0.4954 -0.2248
vn 0.4907 0.8614 -0.1315
vn 0.0104 0.9999 -0.0028
vn -0.4751 0.8707 0.1273
vn -0.8338 0.5048 0.2234
vn -0.9659 -0.0000 0.2588
vn -0.8338 -0.5048 0.2234
vn -0.4751 -0.8707 0.1273
vn 0.0104 -0.9999 -0.0028
vn 0.4907 -0.8614 -0.1315
vn 0.8391 -0.4954 -0.2248
vn 0.9239 -0.0000 -0.3827
vn 0.8025 0.4954 -0.3324
vn 0.4693 0.8614 -0.1944
vn 0.0100 0.9999 -0.0041
vn -0.4544 0.8707 0.1882
vn -0.7975 0.5048 0.3304
vn -0.9239 -0.0000 0.3827
vn -0.7975 -0.5048 0.3304
vn -0.4544 -0.8707 0.1882
vn 0.0100 -0.9999 -0.0041
vn 0.4693 -0.8614 -0.1944
vn 0.8025 -0.4954 -0.3324
vn 0.8660 -0.0000 -0.5000
vn 0.7523 0.4954 -0.4343
vn 0.4399 0.8614 -0.2540
vn 0.0093 0.9999 -0.0054
vn -0.4259 0.8707 0.2459
vn -0.7476 0.5048 0.4316
vn -0.8660 -0.0000 0.5000
vn -0.7476 -0.5048 0.4316
vn -0.4259 -0.8707 0.2459
vn 0.0093 -0.9999 -0.0054
vn 0.4399 -0.8614 -0.2540
vn 0.7523 -0.4954 -0.4343
vn 0.7934 -0.0000 -0.6088
vn 0.6892 0.4954 -0.5288
vn 0.4030 0.8614 -0.3093
vn 0.0085 0.9999 -0.0066
vn -0.3902 0.8707 0.2994
vn -0.6849 0.5047 0.5255
vn -0.7934 -0.0000 0.6088
vn -0.6849 -0.5047 0.5255
vn -0.3902 -0.8707 0.2994
vn 0.0085 -0.9999 -0.0066
vn 0.4030 -0.8614 -0.3093
vn 0.6892 -0.4954 -0.5288
vn 0.7071 -0.0000 -0.7071
vn 0.6142 0.4954 -0.6142
vn 0.3592 0.8614 -0.3592
vn 0.0076 0.9999 -0.0076
vn -0.3478 0.8707 0.3478
vn -0.6104 0.5047 0.6104
vn -0.7071 -0.0000 0.7071
vn -0.6104 -0.5047 0.6104
vn -0.3478 -0.8707 0.3478
vn 0.0076 -0.9999 -0.0076
vn 0.3592 -0.8614 -0.3592
vn 0.6142 -0.4954 -0.6142
vn 0.6088 -0.0000 -0.7934
vn 0.5288 0.4954 -0.6892
vn 0.3093 0.8614 -0.4030
vn 0.0066 0.9999 -0.0085
vn -0.2994 0.8707 0.3902
vn -0.5255 0.5047 0.6849
vn -0.6088 -0.0000 0.7934
vn -0.5255 -0.5047 0.6849
vn -0.2994 -0.8707 0.3902
vn 0.0066 -0.9999 -0.0085
vn 0.3093 -0.8614 -0.4030
vn 0.5288 -0.4954 -0.6892
vn 0.5000 -0.0000 -0.8660
vn 0.4343 0.4954 -0.7523
vn 0.2540 0.8614 -0.4399
vn 0.0054 0.9999 -0.0093
vn -0.2459 0.8707 0.4259
vn -0.4316 0.5048 0.7476
vn -0.5000 -0.0000 0.8660
vn -0.4316 -0.5048 0.7476
vn -0.2459 -0.8707 0.4259
vn 0.0054 -0.9999 -0.0093
vn 0.2540 -0.8614 -0.4399
vn 0.4343 -0.4954 -0.7523
vn 0.3827 -0.0000 -0.9239
vn 0.3324 0.4954 -0.8025
vn 0.1944 0.8614 -0.4693
vn 0.0041 0.9999 -0.0100
vn -0.1882 0.8707 0.4544
vn -0.3304 0.5048 0.7975
vn -0.3827 -0.0000 0.9239
vn -0.3304 -0.5048 0.7975
vn -0.1882 -0.8707 0.4544
vn 0.0041 -0.9999 -0.0100
vn 0.1944 -0.8614 -0.4693
vn 0.3324 -0.4954 -0.8025
vn 0.2588 -0.0000 -0.9659
vn 0.2248 0.4954 -0.8391
vn 0.1315 0.8614 -0.4907
vn 0.0028 0.9999 -0.0104
vn -0.1273 0.8707 0.4751
vn -0.2234 0.5048 0.8338
vn -0.2588 -0.0000 0.9659
vn -0.2234 -0.5048 0.8338
vn -0.1273 -0.8707 0.4751
vn 0.0028 -0.9999 -0.0104
vn 0.1315 -0.8614 -0.4907
vn 0.2248 -0.4954 -0.8391
vn 0.1305 -0.0000 -0.9914
vn 0.1134 0.4954 -0.8612
vn 0.0663 0.8614 -0.5037
vn 0.0014 0.9999 -0.0107
vn -0.0642 0.8707 0.4876
vn -0.1127 0.5048 0.8559
vn -0.1305 -0.0000 0.9914
vn -0.1127 -0.5048 0.8559
vn -0.0642 -0.8707 0.4876
vn 0.0014 -0.9999 -0.0107
vn 0.0663 -0.8614 -0.5037
vn 0.1134 -0.4954 -0.8612
vn -0.0000 -0.0000 -1.0000
vn -0.0000 0.4954 -0.8687
vn -0.0000 0.8614 -0.5080
vn -0.0000 0.9999 -0.0108
vn -0.0000 0.8707 0.4918
vn -0.0000 0.5048 0.8633
vn -0.0000 -0.0000 1.0000
vn -0.0000 -0.5048 0.8633
vn -0.0000 -0.8707 0.4918
vn -0.0000 -0.9999 -0.0108
vn -0.0000 -0.8614 -0.5080
vn -0.0000 -0.4954 -0.8687
vn -0.1305 -0.0000 -0.9914
vn -0.1134 0.4954 -0.8612
vn -0.0663 0.8614 -0.5036
vn -0.0014 0.9999 -0.0107
vn 0.0642 0.8707 0.4876
vn 0.1127 0.5047 0.8559
vn 0.1305 -0.0000 0.9914
vn 0.1127 -0.5047 0.8559
vn 0.0642 -0.8707 0.4876
vn -0.0014 -0.9999 -0.0107
vn -0.0663 -0.8614 -0.5036
vn -0.1134 -0.4954 -0.8612
vn -0.2588 -0.0000 -0.9659
vn -0.2248 0.4954 -0.8391
vn -0.1315 0.8614 -0.4907
vn -0.0028 0.9999 -0.0104
vn 0.1273 0.8707 0.4751
vn 0.2234 0.5048 0.8338
vn 0.2588 -0.0000 0.9659
vn 0.2234 -0.5048 0.8338
vn 0.1273 -0.8707 0.4751
vn -0.0028 -0.9999 -0.0104
vn -0.1315 -0.8614 -0.4907
vn -0.2248 -0.4954 -0.8391
vn -0.3827 -0.0000 -0.9239
vn -0.3324 0.4954 -0.8025
vn -0.1944 0.8614 -0.4693
vn -0.0041 0.9999 -0.0100
vn 0.1882 0.8707 0.4544
vn 0.3304 0.5048 0.7975
vn 0.3827 -0.0000 0.9239
vn 0.3304 -0.5048 0.7975
vn 0.1882 -0.8707 0.4544
vn -0.0041 -0.9999 -0.0100
vn -0.1944 -0.8614 -0.4693
vn -0.3324 -0.4954 -0.8025
vn -0.5000 -0.0000 -0.8660
vn -0.4343 0.4954 -0.7523
vn -0.2540 0.8614 -0.4399
vn -0.0054 0.9999 -0.0093
vn 0.2459 0.8707 0.4259
vn 0.4316 0.5048 0.7476
vn 0.5000 -0.0000 0.8660
vn 0.4316 -0.5048 0.7476
vn 0.2459 -0.8707 0.4259
vn -0.0054 -0.9999 -0.0093
vn -0.2540 -0.8614 -0.4399
vn -0.4343 -0.4954 -0.7523
vn -0.6088 -0.0000 -0.7933
vn -0.5288 0.4954 -0.6892
vn -0.3093 0.8614 -0.4030
vn -0.0066 0.9999 -0.0085
vn 0.2994 0.8707 0.3902
vn 0.5255 0.5047 0.6849
vn 0.6088 -0.0000 0.7934
vn 0.5255 -0.5047 0.6849
vn 0.2994 -0.8707 0.3902
vn -0.0066 -0.9999 -0.0085
vn -0.3093 -0.8614 -0.4030
vn -0.5288 -0.4954 -0.6892
vn -0.7071 -0.0000 -0.7071
vn -0.6142 0.4954 -0.6142
vn -0.3592 0.8614 -0.3592
vn -0.0076 0.9999 -0.0076
vn 0.3478 0.8707 0.3478
vn 0.6104 0.5047 0.6104
vn 0.7071 -0.0000 0.7071
vn 0.6104 -0.5047 0.6104
vn 0.3478 -0.8707 0.3478
vn -0.0076 -0.9999 -0.0076
vn -0.3592 -0.8614 -0.3592
vn -0.6142 -0.4954 -0.6142
vn -0.7933 -0.0000 -0.6088
vn -0.6892 0.4954 -0.5288
vn -0.4030 0.8614 -0.3093
vn -0.0085 0.9999 -0.0066
vn 0.3902 0.8707 0.2994
vn 0.6849 0.5047 0.5255
vn 0.7934 -0.0000 0.6088
vn 0.6849 -0.5047 0.5255
vn 0.3902 -0.8707 0.2994
vn -0.0085 -0.9999 -0.0066
vn -0.4030 -0.8614 -0.3093
vn -0.6892 -0.4954 -0.5288
vn -0.8660 -0.0000 -0.5000
vn -0.7523 0.4954 -0.4343
vn -0.4399 0.8614 -0.2540
vn -0.0093 0.9999 -0.0054
vn 0.4259 0.8707 0.2459
vn 0.7476 0.5048 0.4316
vn 0.8660 -0.0000 0.5000
vn 0.7476 -0.5048 0.4316
vn 0.4259 -0.8707 0.2459
vn -0.0093 -0.9999 -0.0054
vn -0.4399 -0.8614 -0.2540
vn -0.7523 -0.4954 -0.4343
vn -0.9239 -0.0000 -0.3827
vn -0.8025 0.4954 -0.3324
vn -0.4693 0.8614 -0.1944
vn -0.0100 0.9999 -0.0041
vn 0.4544 0.8707 0.1882
vn 0.7975 0.5048 0.3304
vn 0.9239 -0.0000 0.3827
vn 0.7975 -0.5048 0.3304
vn 0.4544 -0.8707 0.1882
vn -0.0100 -0.9999 -0.0041
vn -0.4693 -0.8614 -0.1944
vn -0.8025 -0.4954 -0.3324
vn -0.9659 -0.0000 -0.2588
vn -0.8391 0.4954 -0.2248
vn -0.4907 0.8614 -0.1315
vn -0.0104 0.9999 -0.0028
vn 0.4751 0.8707 0.1273
vn 0.8338 0.5048 0.2234
vn 0.9659 -0.0000 0.2588
vn 0.8338 -0.5048 0.2234
vn 0.4751 -0.8707 0.1273
vn -0.0104 -0.9999 -0.0028
vn -0.4907 -0.8614 -0.1315
vn -0.8391 -0.4954 -0.2248
vn -0.9914 -0.0000 -0.1305
vn -0.8612 0.4954 -0.1134
vn -0.5036 0.8614 -0.0663
vn -0.0107 0.9999 -0.0014
vn 0.4876 0.8707 0.0642
vn 0.8559 0.5047 0.1127
vn 0.9914 -0.0000 0.1305
vn 0.8559 -0.5047 0.1127
vn 0.4876 -0.8707 0.0642
vn -0.0107 -0.9999 -0.0014
vn -0.5036 -0.8614 -0.0663
vn -0.8612 -0.4954 -0.1134
vn -0.8687 0.4954 -0.0000
vn -0.5080 0.8614 -0.0000
vn -0.0108 0.9999 -0.0000
vn 0.4918 0.8707 -0.0000
vn 0.8633 0.5048 -0.0000
vn 0.8633 -0.5048 -0.0000
vn 0.4918 -0.8707 -0.0000
vn -0.0108 -0.9999 -0.0000
vn -0.5080 -0.8614 -0.0000
vn -0.8687 -0.4954 -0.0000
vn -0.8612 0.4954 0.1134
vn -0.5036 0.8614 0.0663
vn -0.0107 0.9999 0.0014
vn 0.4876 0.8707 -0.0642
vn 0.8559 0.5047 -0.1127
vn 0.8559 -0.5047 -0.1127
vn 0.4876 -0.8707 -0.0642
vn -0.0107 -0.9999 0.0014
vn -0.5036 -0.8614 0.0663
vn -0.8612 -0.4954 0.1134
vn -0.8391 0.4954 0.2248
vn -0.4907 0.8614 0.1315
vn -0.0104 0.9999 0.0028
vn 0.4751 0.8707 -0.1273
vn 0.8338 0.5048 -0.2234
vn 0.8338 -0.5048 -0.2234
vn 0.4751 -0.8707 -0.1273
vn -0.0104 -0.9999 0.0028
vn -0.4907 -0.8614 0.1315
vn -0.8391 -0.4954 0.2248
vn -0.8025 0.4954 0.3324
vn -0.4693 0.8614 0.1944
vn -0.0100 0.9999 0.0041
vn 0.4544 0.8707 -0.1882
vn 0.7975 0.5048 -0.3304
vn 0.7975 -0.5048 -0.3304
vn 0.4544 -0.8707 -0.1882
vn -0.0100 -0.9999 0.0041
vn -0.4693 -0.8614 0.1944
vn -0.8025 -0.4954 0.3324
vn -0.7523 0.4954 0.4343
vn -0.4399 0.8614 0.2540
vn -0.0093 0.9999 0.0054
vn 0.4259 0.8707 -0.2459
vn 0.7476 0.5048 -0.4316
vn 0.7476 -0.5048 -0.4316
vn 0.4259 -0.8707 -0.2459
vn -0.0093 -0.9999 0.0054
vn -0.4399 -0.8614 0.2540
vn -0.7523 -0.4954 0.4343
vn -0.7933 -0.0000 0.6088
vn -0.6892 0.4954 0.5288
vn -0.4030 0.8614 0.3093
vn -0.0085 0.9999 0.0066
vn 0.3902 0.8707 -0.2994
vn 0.6849 0.5047 -0.5255
vn 0.6849 -0.5047 -0.5255
vn 0.3902 -0.8707 -0.2994
vn -0.0085 -0.9999 0.0066
vn -0.4030 -0.8614 0.3093
vn -0.6892 -0.4954 0.5288
vn -0.6142 0.4954 0.6142
vn -0.3592 0.8614 0.3592
vn -0.0076 0.9999 0.0076
vn 0.3478 0.8707 -0.3478
vn 0.6104 0.5047 -0.6104
vn 0.6104 -0.5047 -0.6104
vn 0.3478 -0.8707 -0.3478
vn -0.0076 -0.9999 0.0076
vn -0.3592 -0.8614 0.3592
vn -0.6142 -0.4954 0.6142
vn -0.5288 0.4954 0.6892
vn -0.3092 0.8614 0.4030
vn -0.0066 0.9999 0.0085
vn 0.2994 0.8707 -0.3902
vn 0.5255 0.5047 -0.6849
vn 0.5255 -0.5047 -0.6849
vn 0.2994 -0.8707 -0.3902
vn -0.0066 -0.9999 0.0085
vn -0.3092 -0.8614 0.4030
vn -0.5288 -0.4954 0.6892
vn -0.4343 0.4954 0.7523
vn -0.2540 0.8614 0.4399
vn -0.0054 0.9999 0.0093
vn 0.2459 0.8707 -0.4259
vn 0.4316 0.5048 -0.7476
vn 0.4316 -0.5048 -0.7476
vn 0.2459 -0.8707 -0.4259
vn -0.0054 -0.9999 0.0093
vn -0.2540 -0.8614 0.4399
vn -0.4343 -0.4954 0.7523
vn -0.3324 0.4954 0.8025
vn -0.1944 0.8614 0.4693
vn -0.0041 0.9999 0.0100
vn 0.1882 0.8707 -0.4544
vn 0.3304 0.5048 -0.7975
vn 0.3304 -0.5048 -0.7975
vn 0.1882 -0.8707 -0.4544
vn -0.0041 -0.9999 0.0100
vn -0.1944 -0.8614 0.4693
vn -0.3324 -0.4954 0.8025
vn -0.2248 0.4954 0.8391
vn -0.1315 0.8614 0.4907
vn -0.0028 0.9999 0.0104
vn 0.1273 0.8707 -0.4751
vn 0.2234 0.5048 -0.8339
vn 0.2234 -0.5048 -0.8339
vn 0.1273 -0.8707 -0.4751
vn -0.0028 -0.9999 0.0104
vn -0.1315 -0.8614 0.4907
vn -0.2248 -0.4954 0.8391
vn -0.1134 0.4954 0.8612
vn -0.0663 0.8614 0.5036
vn -0.0014 0.9999 0.0107
vn 0.0642 0.8707 -0.4876
vn 0.1127 0.5047 -0.8559
vn 0.1127 -0.5047 -0.8559
vn 0.0642 -0.8707 -0.4876
vn -0.0014 -0.9999 0.0107
vn -0.0663 -0.8614 0.5036
vn -0.1134 -0.4954 0.8612
vn -0.0000 0.4954 0.8687
vn -0.0000 0.8614 0.5080
vn -0.0000 0.9999 0.0108
vn -0.0000 0.8707 -0.4918
vn -0.0000 0.5048 -0.8633
vn -0.0000 -0.5048 -0.8633
vn -0.0000 -0.8707 -0.4918
vn -0.0000 -0.9999 0.0108
vn -0.0000 -0.8614 0.5080
vn -0.0000 -0.4954 0.8687
vn 0.1134 0.4954 0.8612
vn 0.0663 0.8614 0.5037
vn 0.0014 0.9999 0.0107
vn -0.0642 0.8707 -0.4876
vn -0.1127 0.5048 -0.8559
vn -0.1127 -0.5048 -0.8559
vn -0.0642 -0.8707 -0.4876
vn 0.0014 -0.9999 0.0107
vn 0.0663 -0.8614 0.5037
vn 0.1134 -0.4954 0.8612
vn 0.2248 0.4954 0.8391
vn 0.1315 0.8614 0.4907
vn 0.0028 0.9999 0.0104
vn -0.1273 0.8707 -0.4751
vn -0.2234 0.5048 -0.8338
vn -0.2234 -0.5048 -0.8338
vn -0.1273 -0.8707 -0.4751
vn 0.0028 -0.9999 0.0104
vn 0.1315 -0.8614 0.4907
vn 0.2248 -0.4954 0.8391
vn 0.3324 0.4954 0.8025
vn 0.1944 0.8614 0.4693
vn 0.0041 0.9999 0.0100
vn -0.1882 0.8707 -0.4544
vn -0.3304 0.5048 -0.7975
vn -0.3304 -0.5048 -0.7975
vn -0.1882 -0.8707 -0.4544
vn 0.0041 -0.9999 0.0100
vn 0.1944 -0.8614 0.4693
vn 0.3324 -0.4954 0.8025
vn 0.4343 0.4954 0.7523
vn 0.2540 0.8614 0.4399
vn 0.0054 0.9999 0.0093
vn -0.2459 0.8707 -0.4259
vn -0.4316 0.5048 -0.7476
vn -0.4316 -0.5048 -0.7476
vn -0.2459 -0.8707 -0.4259
vn 0.0054 -0.9999 0.0093
vn 0.2540 -0.8614 0.4399
vn 0.4343 -0.4954 0.7523
vn 0.6088 -0.0000 0.7933
vn 0.5288 0.4954 0.6892
vn 0.3093 0.8614 0.4030
vn 0.0066 0.9999 0.0085
vn -0.2994 0.8707 -0.3902
vn -0.5255 0.5047 -0.6849
vn -0.6088 -0.0000 -0.7934
vn -0.5255 -0.5047 -0.6849
vn -0.2994 -0.8707 -0.3902
vn 0.0066 -0.9999 0.0085
vn 0.3093 -0.8614 0.4030
vn 0.5288 -0.4954 0.6892
vn 0.6142 0.4954 0.6142
vn 0.3592 0.8614 0.3592
vn 0.0076 0.9999 0.0076
vn -0.3478 0.8707 -0.3478
vn -0.6104 0.5047 -0.6104
vn -0.6104 -0.5047 -0.6104
vn -0.3478 -0.8707 -0.3478
vn 0.0076 -0.9999 0.0076
vn 0.3592 -0.8614 0.3592
vn 0.6142 -0.4954 0.6142
vn 0.7933 -0.0000 0.6088
vn 0.6892 0.4954 0.5288
vn 0.4030 0.8614 0.3093
vn 0.0085 0.9999 0.0066
vn -0.3902 0.8707 -0.2994
vn -0.6849 0.5047 -0.5255
vn -0.7934 -0.0000 -0.6088
vn -0.6849 -0.5047 -0.5255
vn -0.3902 -0.8707 -0.2994
vn 0.0085 -0.9999 0.0066
vn 0.4030 -0.8614 0.3093
vn 0.6892 -0.4954 0.5288
vn 0.7523 0.4954 0.4343
vn 0.4399 0.8614 0.2540
vn 0.0093 0.9999 0.0054
vn -0.4259 0.8707 -0.2459
vn -0.7476 0.5048 -0.4316
vn -0.7476 -0.5048 -0.4316
vn -0.4259 -0.8707 -0.2459
vn 0.0093 -0.9999 0.0054
vn 0.4399 -0.8614 0.2540
vn 0.7523 -0.4954 0.4343
vn 0.8025 0.4954 0.3324
vn 0.4693 0.8614 0.1944
vn 0.0100 0.9999 0.0041
vn -0.4544 0.8707 -0.1882
vn -0.7975 0.5048 -0.3304
vn -0.7975 -0.5048 -0.3304
vn -0.4544 -0.8707 -0.1882
vn 0.0100 -0.9999 0.0041
vn 0.4693 -0.8614 0.1944
vn 0.8025 -0.4954 0.3324
vn 0.8391 0.4954 0.2248
vn 0.4907 0.8614 0.1315
vn 0.0104 0.9999 0.0028
vn -0.4751 0.8707 -0.1273
vn -0.8338 0.5048 -0.2234
vn -0.8338 -0.5048 -0.2234
vn -0.4751 -0.8707 -0.1273
vn 0.0104 -0.9999 0.0028
vn 0.4907 -0.8614 0.1315
vn 0.8391 -0.4954 0.2248
vn 0.8612 0.4954 0.1134
vn 0.5037 0.8614 0.0663
vn 0.0107 0.9999 0.0014
vn -0.4876 0.8707 -0.0642
vn -0.8559 0.5048 -0.1127
vn -0.8559 -0.5048 -0.1127
vn -0.4876 -0.8707 -0.0642
vn 0.0107 -0.9999 0.0014
vn 0.5037 -0.8614 0.0663
vn 0.8612 -0.4954 0.1134
vt 0.500000 0.500000
vt 0.520833 0.500000
vt 0.520833 0.583333
vt 0.500000 0.583333
vt 0.520833 0.666667
vt 0.500000 0.666667
vt 0.520833 0.750000
vt 0.500000 0.750000
vt 0.520833 0.833333
vt 0.500000 0.833333
vt 0.520833 0.916667
vt 0.500000 0.916667
vt 0.520833 1.000000
vt 0.500000 1.000000
vt 0.500000 0.000000
vt 0.520833 0.000000
vt 0.520833 0.083333
vt 0.500000 0.083333
vt 0.520833 0.166667
vt 0.500000 0.166667
vt 0.520833 0.250000
vt 0.500000 0.250000
vt 0.520833 0.333333
vt 0.500000 0.333333
vt 0.520833 0.416667
vt 0.500000 0.416667
vt 0.541667 0.500000
vt 0.541667 0.583333
vt 0.541667 0.666667
vt 0.541667 0.750000
vt 0.541667 0.833333
vt 0.541667 0.916667
vt 0.541667 1.000000
vt 0.541667 0.000000
vt 0.541667 0.083333
vt 0.541667 0.166667
vt 0.541667 0.250000
vt 0.541667 0.333333
vt 0.541667 0.416667
vt 0.562500 0.500000
vt 0.562500 0.583333
vt 0.562500 0.666667
vt 0.562500 0.750000
vt 0.562500 0.833333
vt 0.562500 0.916667
vt 0.562500 1.000000
vt 0.562500 0.000000
vt 0.562500 0.083333
vt 0.562500 0.166667
vt 0.562500 0.250000
vt 0.562500 0.333333
vt 0.562500 0.416667
vt 0.583333 0.500000
vt 0.583333 0.583333
vt 0.583333 0.666667
vt 0.583333 0.750000
vt 0.583333 0.833333
vt 0.583333 0.916667
vt 0.583333 1.000000
vt 0.583333 0.000000
vt 0.583333 0.083333
vt 0.583333 0.166667
vt 0.583333 0.250000
vt 0.583333 0.333333
vt 0.583333 0.416667
vt 0.604167 0.500000
vt 0.604167 0.583333
vt 0.604167 0.666667
vt 0.604167 0.750000
vt 0.604167 0.833333
vt 0.604167 0.916667
vt 0.604167 1.000000
vt 0.604167 0.000000
vt 0.604167 0.083333
vt 0.604167 0.166667
vt 0.604167 0.250000
vt 0.604167 0.333333
vt 0.604167 0.416667
vt 0.625000 0.500000
vt 0.625000 0.583333
vt 0.625000 0.666667
vt 0.625000 0.750000
vt 0.625000 0.833333
vt 0.625000 0.916667
vt 0.625000 1.000000
vt 0.625000 0.000000
vt 0.625000 0.083333
vt 0.625000 0.166667
vt 0.625000 0.250000
vt 0.625000 0.333333
vt 0.625000 0.416667
vt 0.645833 0.500000
vt 0.645833 0.583333
vt 0.645833 0.666667
vt 0.645833 0.750000
vt 0.645833 0.833333
vt 0.645833 0.916667
vt 0.645833 1.000000
vt 0.645833 0.000000
vt 0.645833 0.083333
vt 0.645833 0.166667
vt 0.645833 0.250000
vt 0.645833 0.333333
vt 0.645833 0.416667
vt 0.666667 0.500000
vt 0.666667 0.583333
vt 0.666667 0.666667
vt 0.666667 0.750000
vt 0.666667 0.833333
vt 0.666667 0.916667
vt 0.666667 1.000000
vt 0.666667 0.000000
vt 0.666667 0.083333
vt 0.666667 0.166667
vt 0.666667 0.250000
vt 0.666667 0.333333
vt 0.666667 0.416667
vt 0.687500 0.500000
vt 0.687500 0.583333
vt 0.687500 0.666667
vt 0.687500 0.750000
vt 0.687500 0.833333
vt 0.687500 0.916667
vt 0.687500 1.000000
vt 0.687500 0.000000
vt 0.687500 0.083333
vt 0.687500 0.166667
vt 0.687500 0.250000
vt 0.687500 0.333333
vt 0.687500 0.416667
vt 0.708333 0.500000
vt 0.708333 0.583333
vt 0.708333 0.666667
vt 0.708333 0.750000
vt 0.708333 0.833333
vt 0.708333 0.916667
vt 0.708333 1.000000
vt 0.708333 0.000000
vt 0.708333 0.083333
vt 0.708333 0.166667
vt 0.708333 0.250000
vt 0.708333 0.333333
vt 0.708333 0.416667
vt 0.729167 0.500000
vt 0.729167 0.583333
vt 0.729167 0.666667
vt 0.729167 0.750000
vt 0.729167 0.833333
vt 0.729167 0.916667
vt 0.729167 1.000000
vt 0.729167 0.000000
vt 0.729167 0.083333
vt 0.729167 0.166667
vt 0.729167 0.250000
vt 0.729167 0.333333
vt 0.729167 0.416667
vt 0.750000 0.500000
vt 0.750000 0.583333
vt 0.750000 0.666667
vt 0.750000 0.750000
vt 0.750000 0.833333
vt 0.750000 0.916667
vt 0.750000 1.000000
vt 0.750000 0.000000
vt 0.750000 0.083333
vt 0.750000 0.166667
vt 0.750000 0.250000
vt 0.750000 0.333333
vt 0.750000 0.416667
vt 0.770833 0.500000
vt 0.770833 0.583333
vt 0.770833 0.666667
vt 0.770833 0.750000
vt 0.770833 0.833333
vt 0.770833 0.916667
vt 0.770833 1.000000
vt 0.770833 0.000000
vt 0.770833 0.083333
vt 0.770833 0.166667
vt 0.770833 0.250000
vt 0.770833 0.333333
vt 0.770833 0.416667
vt 0.791667 0.500000
vt 0.791667 0.583333
vt 0.791667 0.666667
vt 0.791667 0.750000
vt 0.791667 0.833333
vt 0.791667 0.916667
vt 0.791667 1.000000
vt 0.791667 0.000000
vt 0.791667 0.083333
vt 0.791667 0.166667
vt 0.791667 0.250000
vt 0.791667 0.333333
vt 0.791667 0.416667
vt 0.812500 0.500000
vt 0.812500 0.583333
vt 0.812500 0.666667
vt 0.812500 0.750000
vt 0.812500 0.833333
vt 0.812500 0.916667
vt 0.812500 1.000000
vt 0.812500 0.000000
vt 0.812500 0.083333
vt 0.812500 0.166667
vt 0.812500 0.250000
vt 0.812500 0.333333
vt 0.812500 0.416667
vt 0.833333 0.500000
vt 0.833333 0.583333
vt 0.833333 0.666667
vt 0.833333 0.750000
vt 0.833333 0.833333
vt 0.833333 0.916667
vt 0.833333 1.000000
vt 0.833333 0.000000
vt 0.833333 0.083333
vt 0.833333 0.166667
vt 0.833333 0.250000
vt 0.833333 0.333333
vt 0.833333 0.416667
vt 0.854167 0.500000
vt 0.854167 0.583333
vt 0.854167 0.666667
vt 0.854167 0.750000
vt 0.854167 0.833333
vt 0.854167 0.916667
vt 0.854167 1.000000
vt 0.854167 0.000000
vt 0.854167 0.083333
vt 0.854167 0.166667
vt 0.854167 0.250000
vt 0.854167 0.333333
vt 0.854167 0.416667
vt 0.875000 0.500000
vt 0.875000 0.583333
vt 0.875000 0.666667
vt 0.875000 0.750000
vt 0.875000 0.833333
vt 0.875000 0.916667
vt 0.875000 1.000000
vt 0.875000 0.000000
vt 0.875000 0.083333
vt 0.875000 0.166667
vt 0.875000 0.250000
vt 0.875000 0.333333
vt 0.875000 0.416667
vt 0.895833 0.500000
vt 0.895833 0.583333
vt 0.895833 0.666667
vt 0.895833 0.750000
vt 0.895833 0.833333
vt 0.895833 0.916667
vt 0.895833 1.000000
vt 0.895833 0.000000
vt 0.895833 0.083333
vt 0.895833 0.166667
vt 0.895833 0.250000
vt 0.895833 0.333333
vt 0.895833 0.416667
vt 0.916667 0.500000
vt 0.916667 0.583333
vt 0.916667 0.666667
vt 0.916667 0.750000
vt 0.916667 0.833333
vt 0.916667 0.916667
vt 0.916667 1.000000
vt 0.916667 0.000000
vt 0.916667 0.083333
vt 0.916667 0.166667
vt 0.916667 0.250000
vt 0.916667 0.333333
vt 0.916667 0.416667
vt 0.937500 0.500000
vt 0.937500 0.583333
vt 0.937500 0.666667
vt 0.937500 0.750000
vt 0.937500 0.833333
vt 0.937500 0.916667
vt 0.937500 1.000000
vt 0.937500 0.000000
vt 0.937500 0.083333
vt 0.937500 0.166667
vt 0.937500 0.250000
vt 0.937500 0.333333
vt 0.937500 0.416667
vt 0.958333 0.500000
vt 0.958333 0.583333
vt 0.958333 0.666667
vt 0.958333 0.750000
vt 0.958333 0.833333
vt 0.958333 0.916667
vt 0.958333 1.000000
vt 0.958333 0.000000
vt 0.958333 0.083333
vt 0.958333 0.166667
vt 0.958333 0.250000
vt 0.958333 0.333333
vt 0.958333 0.416667
vt 0.979167 0.500000
vt 0.979167 0.583333
vt 0.979167 0.666667
vt 0.979167 0.750000
vt 0.979167 0.833333
vt 0.979167 0.916667
vt 0.979167 1.000000
vt 0.979167 0.000000
vt 0.979167 0.083333
vt 0.979167 0.166667
vt 0.979167 0.250000
vt 0.979167 0.333333
vt 0.979167 0.416667
vt 1.000000 0.500000
vt 1.000000 0.583333
vt 1.000000 0.666667
vt 1.000000 0.750000
vt 1.000000 0.833333
vt 1.000000 0.916667
vt 1.000000 1.000000
vt 1.000000 0.000000
vt 1.000000 0.083333
vt 1.000000 0.166667
vt 1.000000 0.250000
vt 1.000000 0.333333
vt 1.000000 0.416667
vt 0.000000 0.500000
vt 0.020833 0.500000
vt 0.020833 0.583333
vt 0.000000 0.583333
vt 0.020833 0.666667
vt 0.000000 0.666667
vt 0.020833 0.750000
vt 0.000000 0.750000
vt 0.020833 0.833333
vt 0.000000 0.833333
vt 0.020833 0.916667
vt 0.000000 0.916667
vt 0.020833 1.000000
vt 0.000000 1.000000
vt 0.000000 0.000000
vt 0.020833 0.000000
vt 0.020833 0.083333
vt 0.000000 0.083333
vt 0.020833 0.166667
vt 0.000000 0.166667
vt 0.020833 0.250000
vt 0.000000 0.250000
vt 0.020833 0.333333
vt 0.000000 0.333333
vt 0.020833 0.416667
vt 0.000000 0.416667
vt 0.041667 0.500000
vt 0.041667 0.583333
vt 0.041667 0.666667
vt 0.041667 0.750000
vt 0.041667 0.833333
vt 0.041667 0.916667
vt 0.041667 1.000000
vt 0.041667 0.000000
vt 0.041667 0.083333
vt 0.041667 0.166667
vt 0.041667 0.250000
vt 0.041667 0.333333
vt 0.041667 0.416667
vt 0.062500 0.500000
vt 0.062500 0.583333
vt 0.062500 0.666667
vt 0.062500 0.750000
vt 0.062500 0.833333
vt 0.062500 0.916667
vt 0.062500 1.000000
vt 0.062500 0.000000
vt 0.062500 0.083333
vt 0.062500 0.166667
vt 0.062500 0.250000
vt 0.062500 0.333333
vt 0.062500 0.416667
vt 0.083333 0.500000
vt 0.083333 0.583333
vt 0.083333 0.666667
vt 0.083333 0.750000
vt 0.083333 0.833333
vt 0.083333 0.916667
vt 0.083333 1.000000
vt 0.083333 0.000000
vt 0.083333 0.083333
vt 0.083333 0.166667
vt 0.083333 0.250000
vt 0.083333 0.333333
vt 0.083333 0.416667
vt 0.104167 0.500000
vt 0.104167 0.583333
vt 0.104167 0.666667
vt 0.104167 0.750000
vt 0.104167 0.833333
vt 0.104167 0.916667
vt 0.104167 1.000000
vt 0.104167 0.000000
vt 0.104167 0.083333
vt 0.104167 0.166667
vt 0.104167 0.250000
vt 0.104167 0.333333
vt 0.104167 0.416667
vt 0.125000 0.500000
vt 0.125000 0.583333
vt 0.125000 0.666667
vt 0.125000 0.750000
vt 0.125000 0.833333
vt 0.125000 0.916667
vt 0.125000 1.000000
vt 0.125000 0.000000
vt 0.125000 0.083333
vt 0.125000 0.166667
vt 0.125000 0.250000
vt 0.125000 0.333333
vt 0.125000 0.416667
vt 0.145833 0.500000
vt 0.145833 0.583333
vt 0.145833 0.666667
vt 0.145833 0.750000
vt 0.145833 0.833333
vt 0.145833 0.916667
vt 0.145833 1.000000
vt 0.145833 0.000000
vt 0.145833 0.083333
vt 0.145833 0.166667
vt 0.145833 0.250000
vt 0.145833 0.333333
vt 0.145833 0.416667
vt 0.166667 0.500000
vt 0.166667 0.583333
vt 0.166667 0.666667
vt 0.166667 0.750000
vt 0.166667 0.833333
vt 0.166667 0.916667
vt 0.166667 1.000000
vt 0.166667 0.000000
vt 0.166667 0.083333
vt 0.166667 0.166667
vt 0.166667 0.250000
vt 0.166667 0.333333
vt 0.166667 0.416667
vt 0.187500 0.500000
vt 0.187500 0.583333
vt 0.187500 0.666667
vt 0.187500 0.750000
vt 0.187500 0.833333
vt 0.187500 0.916667
vt 0.187500 1.000000
vt 0.187500 0.000000
vt 0.187500 0.083333
vt 0.187500 0.166667
vt 0.187500 0.250000
vt 0.187500 0.333333
vt 0.187500 0.416667
vt 0.208333 0.500000
vt 0.208333 0.583333
vt 0.208333 0.666667
vt 0.208333 0.750000
vt 0.208333 0.833333
vt 0.208333 0.916667
vt 0.208333 1.000000
vt 0.208333 0.000000
vt 0.208333 0.083333
vt 0.208333 0.166667
vt 0.208333 0.250000
vt 0.208333 0.333333
vt 0.208333 0.416667
vt 0.229167 0.500000
vt 0.229167 0.583333
vt 0.229167 0.666667
vt 0.229167 0.750000
vt 0.229167 0.833333
vt 0.229167 0.916667
vt 0.229167 1.000000
vt 0.229167 0.000000
vt 0.229167 0.083333
vt 0.229167 0.166667
vt 0.229167 0.250000
vt 0.229167 0.333333
vt 0.229167 0.416667
vt 0.250000 0.500000
vt 0.250000 0.583333
vt 0.250000 0.666667
vt 0.250000 0.750000
vt 0.250000 0.833333
vt 0.250000 0.916667
vt 0.250000 1.000000
vt 0.250000 0.000000
vt 0.250000 0.083333
vt 0.250000 0.166667
vt 0.250000 0.250000
vt 0.250000 0.333333
vt 0.250000 0.416667
vt 0.270833 0.500000
vt 0.270833 0.583333
vt 0.270833 0.666667
vt 0.270833 0.750000
vt 0.270833 0.833333
vt 0.270833 0.916667
vt 0.270833 1.000000
vt 0.270833 0.000000
vt 0.270833 0.083333
vt 0.270833 0.166667
vt 0.270833 0.250000
vt 0.270833 0.333333
vt 0.270833 0.416667
vt 0.291667 0.500000
vt 0.291667 0.583333
vt 0.291667 0.666667
vt 0.291667 0.750000
vt 0.291667 0.833333
vt 0.291667 0.916667
vt 0.291667 1.000000
vt 0.291667 0.000000
vt 0.291667 0.083333
vt 0.291667 0.166667
vt 0.291667 0.250000
vt 0.291667 0.333333
vt 0.291667 0.416667
vt 0.312500 0.500000
vt 0.312500 0.583333
vt 0.312500 0.666667
vt 0.312500 0.750000
vt 0.312500 0.833333
vt 0.312500 0.916667
vt 0.312500 1.000000
vt 0.312500 0.000000
vt 0.312500 0.083333
vt 0.312500 0.166667
vt 0.312500 0.250000
vt 0.312500 0.333333
vt 0.312500 0.416667
vt 0.333333 0.500000
vt 0.333333 0.583333
vt 0.333333 0.666667
vt 0.333333 0.750000
vt 0.333333 0.833333
vt 0.333333 0.916667
vt 0.333333 1.000000
vt 0.333333 0.000000
vt 0.333333 0.083333
vt 0.333333 0.166667
vt 0.333333 0.250000
vt 0.333333 0.333333
vt 0.333333 0.416667
vt 0.354167 0.500000
vt 0.354167 0.583333
vt 0.354167 0.666667
vt 0.354167 0.750000
vt 0.354167 0.833333
vt 0.354167 0.916667
vt 0.354167 1.000000
vt 0.354167 0.000000
vt 0.354167 0.083333
vt 0.354167 0.166667
vt 0.354167 0.250000
vt 0.354167 0.333333
vt 0.354167 0.416667
vt 0.375000 0.500000
vt 0.375000 0.583333
vt 0.375000 0.666667
vt 0.375000 0.750000
vt 0.375000 0.833333
vt 0.375000 0.916667
vt 0.375000 1.000000
vt 0.375000 0.000000
vt 0.375000 0.083333
vt 0.375000 0.166667
vt 0.375000 0.250000
vt 0.375000 0.333333
vt 0.375000 0.416667
vt 0.395833 0.500000
vt 0.395833 0.583333
vt 0.395833 0.666667
vt 0.395833 0.750000
vt 0.395833 0.833333
vt 0.395833 0.916667
vt 0.395833 1.000000
vt 0.395833 0.000000
vt 0.395833 0.083333
vt 0.395833 0.166667
vt 0.395833 0.250000
vt 0.395833 0.333333
vt 0.395833 0.416667
vt 0.416667 0.500000
vt 0.416667 0.583333
vt 0.416667 0.666667
vt 0.416667 0.750000
vt 0.416667 0.833333
vt 0.416667 0.916667
vt 0.416667 1.000000
vt 0.416667 0.000000
vt 0.416667 0.083333
vt 0.416667 0.166667
vt 0.416667 0.250000
vt 0.416667 0.333333
vt 0.416667 0.416667
vt 0.437500 0.500000
vt 0.437500 0.583333
vt 0.437500 0.666667
vt 0.437500 0.750000
vt 0.437500 0.833333
vt 0.437500 0.916667
vt 0.437500 1.000000
vt 0.437500 0.000000
vt 0.437500 0.083333
vt 0.437500 0.166667
vt 0.437500 0.250000
vt 0.437500 0.333333
vt 0.437500 0.416667
vt 0.458333 0.500000
vt 0.458333 0.583333
vt 0.458333 0.666667
vt 0.458333 0.750000
vt 0.458333 0.833333
vt 0.458333 0.916667
vt 0.458333 1.000000
vt 0.458333 0.000000
vt 0.458333 0.083333
vt 0.458333 0.166667
vt 0.458333 0.250000
vt 0.458333 0.333333
vt 0.458333 0.416667
vt 0.479167 0.500000
vt 0.479167 0.583333
vt 0.479167 0.666667
vt 0.479167 0.750000
vt 0.479167 0.833333
vt 0.479167 0.916667
vt 0.479167 1.000000
vt 0.479167 0.000000
vt 0.479167 0.083333
vt 0.479167 0.166667
vt 0.479167 0.250000
vt 0.479167 0.333333
vt 0.479167 0.416667
s 1
usemtl Material.002
f 1/1/1 13/2/2 14/3/3 2/4/4
f 2/4/4 14/3/3 15/5/5 3/6/6
f 3/6/6 15/5/5 16/7/7 4/8/8
f 4/8/8 16/7/7 17/9/9 5/10/10
f 5/10/10 17/9/9 18/11/11 6/12/12
f 6/12/12 18/11/11 19/13/13 7/14/14
f 7/15/14 19/16/13 20/17/15 8/18/16
f 8/18/16 20/17/15 21/19/17 9/20/18
f 9/20/18 21/19/17 22/21/19 10/22/20
f 10/22/20 22/21/19 23/23/21 11/24/22
f 11/24/22 23/23/21 24/25/23 12/26/24
f 12/26/24 24/25/23 13/2/2 1/1/1
f 13/2/2 25/27/25 26/28/26 14/3/3
f 14/3/3 26/28/26 27/29/27 15/5/5
f 15/5/5 27/29/27 28/30/28 16/7/7
f 16/7/7 28/30/28 29/31/29 17/9/9
f 17/9/9 29/31/29 30/32/30 18/11/11
f 18/11/11 30/32/30 31/33/31 19/13/13
f 19/16/13 31/34/31 32/35/32 20/17/15
f 20/17/15 32/35/32 33/36/33 21/19/17
f 21/19/17 33/36/33 34/37/34 22/21/19
f 22/21/19 34/37/34 35/38/35 23/23/21
f 23/23/21 35/38/35 36/39/36 24/25/23
f 24/25/23 36/39/36 25/27/25 13/2/2
f 25/27/25 37/40/37 38/41/38 26/28/26
f 26/28/26 38/41/38 39/42/39 27/29/27
f 27/29/27 39/42/39 40/43/40 28/30/28
f 28/30/28 40/43/40 41/44/41 29/31/29
f 29/31/29 41/44/41 42/45/42 30/32/30
f 30/32/30 42/45/42 43/46/43 31/33/31
f 31/34/31 43/47/43 44/48/44 32/35/32
f 32/35/32 44/48/44 45/49/45 33/36/33
f 33/36/33 45/49/45 46/50/46 34/37/34
f 34/37/34 46/50/46 47/51/47 35/38/35
f 35/38/35 47/51/47 48/52/48 36/39/36
f 36/39/36 48/52/48 37/40/37 25/27/25
f 37/40/37 49/53/49 50/54/50 38/41/38
f 38/41/38 50/54/50 51/55/51 39/42/39
f 39/42/39 51/55/51 52/56/52 40/43/40
f 40/43/40 52/56/52 53/57/53 41/44/41
f 41/44/41 53/57/53 54/58/54 42/45/42
f 42/45/42 54/58/54 55/59/55 43/46/43
f 43/47/43 55/60/55 56/61/56 44/48/44
f 44/48/44 56/61/56 57/62/57 45/49/45
f 45/49/45 57/62/57 58/63/58 46/50/46
f 46/50/46 58/63/58 59/64/59 47/51/47
f 47/51/47 59/64/59 60/65/60 48/52/48
f 48/52/48 60/65/60 49/53/49 37/40/37
f 49/53/49 61/66/61 62/67/62 50/54/50
f 50/54/50 62/67/62 63/68/63 51/55/51
f 51/55/51 63/68/63 64/69/64 52/56/52
f 52/56/52 64/69/64 65/70/65 53/57/53
f 53/57/53 65/70/65 66/71/66 54/58/54
f 54/58/54 66/71/66 67/72/67 55/59/55
f 55/60/55 67/73/67 68/74/68 56/61/56
f 56/61/56 68/74/68 69/75/69 57/62/57
f 57/62/57 69/75/69 70/76/70 58/63/58
f 58/63/58 70/76/70 71/77/71 59/64/59
f 59/64/59 71/77/71 72/78/72 60/65/60
f 60/65/60 72/78/72 61/66/61 49/53/49
f 61/66/61 73/79/73 74/80/74 62/67/62
f 62/67/62 74/80/74 75/81/75 63/68/63
f 63/68/63 75/81/75 76/82/76 64/69/64
f 64/69/64 76/82/76 77/83/77 65/70/65
f 65/70/65 77/83/77 78/84/78 66/71/66
f 66/71/66 78/84/78 79/85/79 67/72/67
f 67/73/67 79/86/79 80/87/80 68/74/68
f 68/74/68 80/87/80 81/88/81 69/75/69
f 69/75/69 81/88/81 82/89/82 70/76/70
f 70/76/70 82/89/82 83/90/83 71/77/71
f 71/77/71 83/90/83 84/91/84 72/78/72
f 72/78/72 84/91/84 73/79/73 61/66/61
f 73/79/73 85/92/85 86/93/86 74/80/74
f 74/80/74 86/93/86 87/94/87 75/81/75
f 75/81/75 87/94/87 88/95/88 76/82/76
f 76/82/76 88/95/88 89/96/89 77/83/77
f 77/83/77 89/96/89 90/97/90 78/84/78
f 78/84/78 90/97/90 91/98/91 79/85/79
f 79/86/79 91/99/91 92/100/92 80/87/80
f 80/87/80 92/100/92 93/101/93 81/88/81
f 81/88/81 93/101/93 94/102/94 82/89/82
f 82/89/82 94/102/94 95/103/95 83/90/83
f 83/90/83 95/103/95 96/104/96 84/91/84
f 84/91/84 96/104/96 85/92/85 73/79/73
f 85/92/85 97/105/97 98/106/98 86/93/86
f 86/93/86 98/106/98 99/107/99 87/94/87
f 87/94/87 99/107/99 100/108/100 88/95/88
f 88/95/88 100/108/100 101/109/101 89/96/89
f 89/96/89 101/109/101 102/110/102 90/97/90
f 90/97/90 102/110/102 103/111/103 91/98/91
f 91/99/91 103/112/103 104/113/104 92/100/92
f 92/100/92 104/113/104 105/114/105 93/101/93
f 93/101/93 105/114/105 106/115/106 94/102/94
f 94/102/94 106/115/106 107/116/107 95/103/95
f 95/103/95 107/116/107 108/117/108 96/104/96
f 96/104/96 108/117/108 97/105/97 85/92/85
f 97/105/97 109/118/109 110/119/110 98/106/98
f 98/106/98 110/119/110 111/120/111 99/107/99
f 99/107/99 111/120/111 112/121/112 100/108/100
f 100/108/100 112/121/112 113/122/113 101/109/101
f 101/109/101 113/122/113 114/123/114 102/110/102
f 102/110/102 114/123/114 115/124/115 103/111/103
f 103/112/103 115/125/115 116/126/116 104/113/104
f 104/113/104 116/126/116 117/127/117 105/114/105
f 105/114/105 117/127/117 118/128/118 106/115/106
f 106/115/106 118/128/118 119/129/119 107/116/107
f 107/116/107 119/129/119 120/130/120 108/117/108
f 108/117/108 120/130/120 109/118/109 97/105/97
f 109/118/109 121/131/121 122/132/122 110/119/110
f 110/119/110 122/132/122 123/133/123 111/120/111
f 111/120/111 123/133/123 124/134/124 112/121/112
f 112/121/112 124/134/124 125/135/125 113/122/113
f 113/122/113 125/135/125 126/136/126 114/123/114
f 114/123/114 126/136/126 127/137/127 115/124/115
f 115/125/115 127/138/127 128/139/128 116/126/116
f 116/126/116 128/139/128 129/140/129 117/127/117
f 117/127/117 129/140/129 130/141/130 118/128/118
f 118/128/118 130/141/130 131/142/131 119/129/119
f 119/129/119 131/142/131 132/143/132 120/130/120
f 120/130/120 132/143/132 121/131/121 109/118/109
f 121/131/121 133/144/133 134/145/134 122/132/122
f 122/132/122 134/145/134 135/146/135 123/133/123
f 123/133/123 135/146/135 136/147/136 124/134/124
f 124/134/124 136/147/136 137/148/137 125/135/125
f 125/135/125 137/148/137 138/149/138 126/136/126
f 126/136/126 138/149/138 139/150/139 127/137/127
f 127/138/127 139/151/139 140/152/140 128/139/128
f 128/139/128 140/152/140 141/153/141 129/140/129
f 129/140/129 141/153/141 142/154/142 130/141/130
f 130/141/130 142/154/142 143/155/143 131/142/131
f 131/142/131 143/155/143 144/156/144 132/143/132
f 132/143/132 144/156/144 133/144/133 121/131/121
f 133/144/133 145/157/145 146/158/146 134/145/134
f 134/145/134 146/158/146 147/159/147 135/146/135
f 135/146/135 147/159/147 148/160/148 136/147/136
f 136/147/136 148/160/148 149/161/149 137/148/137
f 137/148/137 149/161/149 150/162/150 138/149/138
f 138/149/138 150/162/150 151/163/151 139/150/139
f 139/151/139 151/164/151 152/165/152 140/152/140
f 140/152/140 152/165/152 153/166/153 141/153/141
f 141/153/141 153/166/153 154/167/154 142/154/142
f 142/154/142 154/167/154 155/168/155 143/155/143
f 143/155/143 155/168/155 156/169/156 144/156/144
f 144/156/144 156/169/156 145/157/145 133/144/133
f 145/157/145 157/170/157 158/171/158 146/158/146
f 146/158/146 158/171/158 159/172/159 147/159/147
f 147/159/147 159/172/159 160/173/160 148/160/148
f 148/160/148 160/173/160 161/174/161 149/161/149
f 149/161/149 161/174/161 162/175/162 150/162/150
f 150/162/150 162/175/162 163/176/163 151/163/151
f 151/164/151 163/177/163 164/178/164 152/165/152
f 152/165/152 164/178/164 165/179/165 153/166/153
f 153/166/153 165/179/165 166/180/166 154/167/154
f 154/167/154 166/180/166 167/181/167 155/168/155
f 155/168/155 167/181/167 168/182/168 156/169/156
f 156/169/156 168/182/168 157/170/157 145/157/145
f 157/170/157 169/183/169 170/184/170 158/171/158
f 158/171/158 170/184/170 171/185/171 159/172/159
f 159/172/159 171/185/171 172/186/172 160/173/160
f 160/173/160 172/186/172 173/187/173 161/174/161
f 161/174/161 173/187/173 174/188/174 162/175/162
f 162/175/162 174/188/174 175/189/175 163/176/163
f 163/177/163 175/190/175 176/191/176 164/178/164
f 164/178/164 176/191/176 177/192/177 165/179/165
f 165/179/165 177/192/177 178/193/178 166/180/166
f 166/180/166 178/193/178 179/194/179 167/181/167
f 167/181/167 179/194/179 180/195/180 168/182/168
f 168/182/168 180/195/180 169/183/169 157/170/157
f 169/183/169 181/196/181 182/197/182 170/184/170
f 170/184/170 182/197/182 183/198/183 171/185/171
f 171/185/171 183/198/183 184/199/184 172/186/172
f 172/186/172 184/199/184 185/200/185 173/187/173
f 173/187/173 185/200/185 186/201/186 174/188/174
f 174/188/174 186/201/186 187/202/187 175/189/175
f 175/190/175 187/203/187 188/204/188 176/191/176
f 176/191/176 188/204/188 189/205/189 177/192/177
f 177/192/177 189/205/189 190/206/190 178/193/178
f 178/193/178 190/206/190 191/207/191 179/194/179
f 179/194/179 191/207/191 192/208/192 180/195/180
f 180/195/180 192/208/192 181/196/181 169/183/169
f 181/196/181 193/209/193 194/210/194 182/197/182
f 182/197/182 194/210/194 195/211/195 183/198/183
f 183/198/183 195/211/195 196/212/196 184/199/184
f 184/199/184 196/212/196 197/213/197 185/200/185
f 185/200/185 197/213/197 198/214/198 186/201/186
f 186/201/186 198/214/198 199/215/199 187/202/187
f 187/203/187 199/216/199 200/217/200 188/204/188
f 188/204/188 200/217/200 201/218/201 189/205/189
f 189/205/189 201/218/201 202/219/202 190/206/190
f 190/206/190 202/219/202 203/220/203 191/207/191
f 191/207/191 203/220/203 204/221/204 192/208/192
f 192/208/192 204/221/204 193/209/193 181/196/181
f 193/209/193 205/222/205 206/223/206 194/210/194
f 194/210/194 206/223/206 207/224/207 195/211/195
f 195/211/195 207/224/207 208/225/208 196/212/196
f 196/212/196 208/225/208 209/226/209 197/213/197
f 197/213/197 209/226/209 210/227/210 198/214/198
f 198/214/198 210/227/210 211/228/211 199/215/199
f 199/216/199 211/229/211 212/230/212 200/217/200
f 200/217/200 212/230/212 213/231/213 201/218/201
f 201/218/201 213/231/213 214/232/214 202/219/202
f 202/219/202 214/232/214 215/233/215 203/220/203
f 203/220/203 215/233/215 216/234/216 204/221/204
f 204/221/204 216/234/216 205/222/205 193/209/193
f 205/222/205 217/235/217 218/236/218 206/223/206
f 206/223/206 218/236/218 219/237/219 207/224/207
f 207/224/207 219/237/219 220/238/220 208/225/208
f 208/225/208 220/238/220 221/239/221 209/226/209
f 209/226/209 221/239/221 222/240/222 210/227/210
f 210/227/210 222/240/222 223/241/223 211/228/211
f 211/229/211 223/242/223 224/243/224 212/230/212
f 212/230/212 224/243/224 225/244/225 213/231/213
f 213/231/213 225/244/225 226/245/226 214/232/214
f 214/232/214 226/245/226 227/246/227 215/233/215
f 215/233/215 227/246/227 228/247/228 216/234/216
f 216/234/216 228/247/228 217/235/217 205/222/205
f 217/235/217 229/248/229 230/249/230 218/236/218
f 218/236/218 230/249/230 231/250/231 219/237/219
f 219/237/219 231/250/231 232/251/232 220/238/220
f 220/238/220 232/251/232 233/252/233 221/239/221
f 221/239/221 233/252/233 234/253/234 222/240/222
f 222/240/222 234/253/234 235/254/235 223/241/223
f 223/242/223 235/255/235 236/256/236 224/243/224
f 224/243/224 236/256/236 237/257/237 225/244/225
f 225/244/225 237/257/237 238/258/238 226/245/226
f 226/245/226 238/258/238 239/259/239 227/246/227
f 227/246/227 239/259/239 240/260/240 228/247/228
f 228/247/228 240/260/240 229/248/229 217/235/217
f 229/248/229 241/261/241 242/262/242 230/249/230
f 230/249/230 242/262/242 243/263/243 231/250/231
f 231/250/231 243/263/243 244/264/244 232/251/232
f 232/251/232 244/264/244 245/265/245 233/252/233
f 233/252/233 245/265/245 246/266/246 234/253/234
f 234/253/234 246/266/246 247/267/247 235/254/235
f 235/255/235 247/268/247 248/269/248 236/256/236
f 236/256/236 248/269/248 249/270/249 237/257/237
f 237/257/237 249/270/249 250/271/250 238/258/238
f 238/258/238 250/271/250 251/272/251 239/259/239
f 239/259/239 251/272/251 252/273/252 240/260/240
f 240/260/240 252/273/252 241/261/241 229/248/229
f 241/261/241 253/274/253 254/275/254 242/262/242
f 242/262/242 254/275/254 255/276/255 243/263/243
f 243/263/243 255/276/255 256/277/256 244/264/244
f 244/264/244 256/277/256 257/278/257 245/265/245
f 245/265/245 257/278/257 258/279/258 246/266/246
f 246/266/246 258/279/258 259/280/259 247/267/247
f 247/268/247 259/281/259 260/282/260 248/269/248
f 248/269/248 260/282/260 261/283/261 249/270/249
f 249/270/249 261/283/261 262/284/262 250/271/250
f 250/271/250 262/284/262 263/285/263 251/272/251
f 251/272/251 263/285/263 264/286/264 252/273/252
f 252/273/252 264/286/264 253/274/253 241/261/241
f 253/274/253 265/287/265 266/288/266 254/275/254
f 254/275/254 266/288/266 267/289/267 255/276/255
f 255/276/255 267/289/267 268/290/268 256/277/256
f 256/277/256 268/290/268 269/291/269 257/278/257
f 257/278/257 269/291/269 270/292/270 258/279/258
f 258/279/258 270/292/270 271/293/271 259/280/259
f 259/281/259 271/294/271 272/295/272 260/282/260
f 260/282/260 272/295/272 273/296/273 261/283/261
f 261/283/261 273/296/273 274/297/274 262/284/262
f 262/284/262 274/297/274 275/298/275 263/285/263
f 263/285/263 275/298/275 276/299/276 264/286/264
f 264/286/264 276/299/276 265/287/265 253/274/253
f 265/287/265 277/300/277 278/301/278 266/288/266
f 266/288/266 278/301/278 279/302/279 267/289/267
f 267/289/267 279/302/279 280/303/280 268/290/268
f 268/290/268 280/303/280 281/304/281 269/291/269
f 269/291/269 281/304/281 282/305/282 270/292/270
f 270/292/270 282/305/282 283/306/283 271/293/271
f 271/294/271 283/307/283 284/308/284 272/295/272
f 272/295/272 284/308/284 285/309/285 273/296/273
f 273/296/273 285/309/285 286/310/286 274/297/274
f 274/297/274 286/310/286 287/311/287 275/298/275
f 275/298/275 287/311/287 288/312/288 276/299/276
f 276/299/276 288/312/288 277/300/277 265/287/265
f 277/300/277 289/313/14 290/314/289 278/301/278
f 278/301/278 290/314/289 291/315/290 279/302/279
f 279/302/279 291/315/290 292/316/291 280/303/280
f 280/303/280 292/316/291 293/317/292 281/304/281
f 281/304/281 293/317/292 294/318/293 282/305/282
f 282/305/282 294/318/293 295/319/1 283/306/283
f 283/307/283 295/320/1 296/321/294 284/308/284
f 284/308/284 296/321/294 297/322/295 285/309/285
f 285/309/285 297/322/295 298/323/296 286/310/286
f 286/310/286 298/323/296 299/324/297 287/311/287
f 287/311/287 299/324/297 300/325/298 288/312/288
f 288/312/288 300/325/298 289/313/14 277/300/277
f 289/326/14 301/327/13 302/328/299 290/329/289
f 290/329/289 302/328/299 303/330/300 291/331/290
f 291/331/290 303/330/300 304/332/301 292/333/291
f 292/333/291 304/332/301 305/334/302 293/335/292
f 293/335/292 305/334/302 306/336/303 294/337/293
f 294/337/293 306/336/303 307/338/2 295/339/1
f 295/340/1 307/341/2 308/342/304 296/343/294
f 296/343/294 308/342/304 309/344/305 297/345/295
f 297/345/295 309/344/305 310/346/306 298/347/296
f 298/347/296 310/346/306 311/348/307 299/349/297
f 299/349/297 311/348/307 312/350/308 300/351/298
f 300/351/298 312/350/308 301/327/13 289/326/14
f 301/327/13 313/352/31 314/353/309 302/328/299
f 302/328/299 314/353/309 315/354/310 303/330/300
f 303/330/300 315/354/310 316/355/311 304/332/301
f 304/332/301 316/355/311 317/356/312 305/334/302
f 305/334/302 317/356/312 318/357/313 306/336/303
f 306/336/303 318/357/313 319/358/25 307/338/2
f 307/341/2 319/359/25 320/360/314 308/342/304
f 308/342/304 320/360/314 321/361/315 309/344/305
f 309/344/305 321/361/315 322/362/316 310/346/306
f 310/346/306 322/362/316 323/363/317 311/348/307
f 311/348/307 323/363/317 324/364/318 312/350/308
f 312/350/308 324/364/318 313/352/31 301/327/13
f 313/352/31 325/365/43 326/366/319 314/353/309
f 314/353/309 326/366/319 327/367/320 315/354/310
f 315/354/310 327/367/320 328/368/321 316/355/311
f 316/355/311 328/368/321 329/369/322 317/356/312
f 317/356/312 329/369/322 330/370/323 318/357/313
f 318/357/313 330/370/323 331/371/37 319/358/25
f 319/359/25 331/372/37 332/373/324 320/360/314
f 320/360/314 332/373/324 333/374/325 321/361/315
f 321/361/315 333/374/325 334/375/326 322/362/316
f 322/362/316 334/375/326 335/376/327 323/363/317
f 323/363/317 335/376/327 336/377/328 324/364/318
f 324/364/318 336/377/328 325/365/43 313/352/31
f 325/365/43 337/378/55 338/379/329 326/366/319
f 326/366/319 338/379/329 339/380/330 327/367/320
f 327/367/320 339/380/330 340/381/331 328/368/321
f 328/368/321 340/381/331 341/382/332 329/369/322
f 329/369/322 341/382/332 342/383/333 330/370/323
f 330/370/323 342/383/333 343/384/49 331/371/37
f 331/372/37 343/385/49 344/386/334 332/373/324
f 332/373/324 344/386/334 345/387/335 333/374/325
f 333/374/325 345/387/335 346/388/336 334/375/326
f 334/375/326 346/388/336 347/389/337 335/376/327
f 335/376/327 347/389/337 348/390/338 336/377/328
f 336/377/328 348/390/338 337/378/55 325/365/43
f 337/378/55 349/391/339 350/392/340 338/379/329
f 338/379/329 350/392/340 351/393/341 339/380/330
f 339/380/330 351/393/341 352/394/342 340/381/331
f 340/381/331 352/394/342 353/395/343 341/382/332
f 341/382/332 353/395/343 354/396/344 342/383/333
f 342/383/333 354/396/344 355/397/61 343/384/49
f 343/385/49 355/398/61 356/399/345 344/386/334
f 344/386/334 356/399/345 357/400/346 345/387/335
f 345/387/335 357/400/346 358/401/347 346/388/336
f 346/388/336 358/401/347 359/402/348 347/389/337
f 347/389/337 359/402/348 360/403/349 348/390/338
f 348/390/338 360/403/349 349/391/339 337/378/55
f 349/391/339 361/404/79 362/405/350 350/392/340
f 350/392/340 362/405/350 363/406/351 351/393/341
f 351/393/341 363/406/351 364/407/352 352/394/342
f 352/394/342 364/407/352 365/408/353 353/395/343
f 353/395/343 365/408/353 366/409/354 354/396/344
f 354/396/344 366/409/354 367/410/73 355/397/61
f 355/398/61 367/411/73 368/412/355 356/399/345
f 356/399/345 368/412/355 369/413/356 357/400/346
f 357/400/346 369/413/356 370/414/357 358/401/347
f 358/401/347 370/414/357 371/415/358 359/402/348
f 359/402/348 371/415/358 372/416/359 360/403/349
f 360/403/349 372/416/359 361/404/79 349/391/339
f 361/404/79 373/417/91 374/418/360 362/405/350
f 362/405/350 374/418/360 375/419/361 363/406/351
f 363/406/351 375/419/361 376/420/362 364/407/352
f 364/407/352 376/420/362 377/421/363 365/408/353
f 365/408/353 377/421/363 378/422/364 366/409/354
f 366/409/354 378/422/364 379/423/85 367/410/73
f 367/411/73 379/424/85 380/425/365 368/412/355
f 368/412/355 380/425/365 381/426/366 369/413/356
f 369/413/356 381/426/366 382/427/367 370/414/357
f 370/414/357 382/427/367 383/428/368 371/415/358
f 371/415/358 383/428/368 384/429/369 372/416/359
f 372/416/359 384/429/369 373/417/91 361/404/79
f 373/417/91 385/430/103 386/431/370 374/418/360
f 374/418/360 386/431/370 387/432/371 375/419/361
f 375/419/361 387/432/371 388/433/372 376/420/362
f 376/420/362 388/433/372 389/434/373 377/421/363
f 377/421/363 389/434/373 390/435/374 378/422/364
f 378/422/364 390/435/374 391/436/97 379/423/85
f 379/424/85 391/437/97 392/438/375 380/425/365
f 380/425/365 392/438/375 393/439/376 381/426/366
f 381/426/366 393/439/376 394/440/377 382/427/367
f 382/427/367 394/440/377 395/441/378 383/428/368
f 383/428/368 395/441/378 396/442/379 384/429/369
f 384/429/369 396/442/379 385/430/103 373/417/91
f 385/430/103 397/443/115 398/444/380 386/431/370
f 386/431/370 398/444/380 399/445/381 387/432/371
f 387/432/371 399/445/381 400/446/382 388/433/372
f 388/433/372 400/446/382 401/447/383 389/434/373
f 389/434/373 401/447/383 402/448/384 390/435/374
f 390/435/374 402/448/384 403/449/109 391/436/97
f 391/437/97 403/450/109 404/451/385 392/438/375
f 392/438/375 404/451/385 405/452/386 393/439/376
f 393/439/376 405/452/386 406/453/387 394/440/377
f 394/440/377 406/453/387 407/454/388 395/441/378
f 395/441/378 407/454/388 408/455/389 396/442/379
f 396/442/379 408/455/389 397/443/115 385/430/103
f 397/443/115 409/456/127 410/457/390 398/444/380
f 398/444/380 410/457/390 411/458/391 399/445/381
f 399/445/381 411/458/391 412/459/392 400/446/382
f 400/446/382 412/459/392 413/460/393 401/447/383
f 401/447/383 413/460/393 414/461/394 402/448/384
f 402/448/384 414/461/394 415/462/121 403/449/109
f 403/450/109 415/463/121 416/464/395 404/451/385
f 404/451/385 416/464/395 417/465/396 405/452/386
f 405/452/386 417/465/396 418/466/397 406/453/387
f 406/453/387 418/466/397 419/467/398 407/454/388
f 407/454/388 419/467/398 420/468/399 408/455/389
f 408/455/389 420/468/399 409/456/127 397/443/115
f 409/456/127 421/469/139 422/470/400 410/457/390
f 410/457/390 422/470/400 423/471/401 411/458/391
f 411/458/391 423/471/401 424/472/402 412/459/392
f 412/459/392 424/472/402 425/473/403 413/460/393
f 413/460/393 425/473/403 426/474/404 414/461/394
f 414/461/394 426/474/404 427/475/133 415/462/121
f 415/463/121 427/476/133 428/477/405 416/464/395
f 416/464/395 428/477/405 429/478/406 417/465/396
f 417/465/396 429/478/406 430/479/407 418/466/397
f 418/466/397 430/479/407 431/480/408 419/467/398
f 419/467/398 431/480/408 432/481/409 420/468/399
f 420/468/399 432/481/409 421/469/139 409/456/127
f 421/469/139 433/482/151 434/483/410 422/470/400
f 422/470/400 434/483/410 435/484/411 423/471/401
f 423/471/401 435/484/411 436/485/412 424/472/402
f 424/472/402 436/485/412 437/486/413 425/473/403
f 425/473/403 437/486/413 438/487/414 426/474/404
f 426/474/404 438/487/414 439/488/145 427/475/133
f 427/476/133 439/489/145 440/490/415 428/477/405
f 428/477/405 440/490/415 441/491/416 429/478/406
f 429/478/406 441/491/416 442/492/417 430/479/407
f 430/479/407 442/492/417 443/493/418 431/480/408
f 431/480/408 443/493/418 444/494/419 432/481/409
f 432/481/409 444/494/419 433/482/151 421/469/139
f 433/482/151 445/495/163 446/496/420 434/483/410
f 434/483/410 446/496/420 447/497/421 435/484/411
f 435/484/411 447/497/421 448/498/422 436/485/412
f 436/485/412 448/498/422 449/499/423 437/486/413
f 437/486/413 449/499/423 450/500/424 438/487/414
f 438/487/414 450/500/424 451/501/157 439/488/145
f 439/489/145 451/502/157 452/503/425 440/490/415
f 440/490/415 452/503/425 453/504/426 441/491/416
f 441/491/416 453/504/426 454/505/427 442/492/417
f 442/492/417 454/505/427 455/506/428 443/493/418
f 443/493/418 455/506/428 456/507/429 444/494/419
f 444/494/419 456/507/429 445/495/163 433/482/151
f 445/495/163 457/508/175 458/509/430 446/496/420
f 446/496/420 458/509/430 459/510/431 447/497/421
f 447/497/421 459/510/431 460/511/432 448/498/422
f 448/498/422 460/511/432 461/512/433 449/499/423
f 449/499/423 461/512/433 462/513/434 450/500/424
f 450/500/424 462/513/434 463/514/169 451/501/157
f 451/502/157 463/515/169 464/516/435 452/503/425
f 452/503/425 464/516/435 465/517/436 453/504/426
f 453/504/426 465/517/436 466/518/437 454/505/427
f 454/505/427 466/518/437 467/519/438 455/506/428
f 455/506/428 467/519/438 468/520/439 456/507/429
f 456/507/429 468/520/439 457/508/175 445/495/163
f 457/508/175 469/521/187 470/522/440 458/509/430
f 458/509/430 470/522/440 471/523/441 459/510/431
f 459/510/431 471/523/441 472/524/442 460/511/432
f 460/511/432 472/524/442 473/525/443 461/512/433
f 461/512/433 473/525/443 474/526/444 462/513/434
f 462/513/434 474/526/444 475/527/181 463/514/169
f 463/515/169 475/528/181 476/529/445 464/516/435
f 464/516/435 476/529/445 477/530/446 465/517/436
f 465/517/436 477/530/446 478/531/447 466/518/437
f 466/518/437 478/531/447 479/532/448 467/519/438
f 467/519/438 479/532/448 480/533/449 468/520/439
f 468/520/439 480/533/449 469/521/187 457/508/175
f 469/521/187 481/534/199 482/535/450 470/522/440
f 470/522/440 482/535/450 483/536/451 471/523/441
f 471/523/441 483/536/451 484/537/452 472/524/442
f 472/524/442 484/537/452 485/538/453 473/525/443
f 473/525/443 485/538/453 486/539/454 474/526/444
f 474/526/444 486/539/454 487/540/193 475/527/181
f 475/528/181 487/541/193 488/542/455 476/529/445
f 476/529/445 488/542/455 489/543/456 477/530/446
f 477/530/446 489/543/456 490/544/457 478/531/447
f 478/531/447 490/544/457 491/545/458 479/532/448
f 479/532/448 491/545/458 492/546/459 480/533/449
f 480/533/449 492/546/459 481/534/199 469/521/187
f 481/534/199 493/547/460 494/548/461 482/535/450
f 482/535/450 494/548/461 495/549/462 483/536/451
f 483/536/451 495/549/462 496/550/463 484/537/452
f 484/537/452 496/550/463 497/551/464 485/538/453
f 485/538/453 497/551/464 498/552/465 486/539/454
f 486/539/454 498/552/465 499/553/466 487/540/193
f 487/541/193 499/554/466 500/555/467 488/542/455
f 488/542/455 500/555/467 501/556/468 489/543/456
f 489/543/456 501/556/468 502/557/469 490/544/457
f 490/544/457 502/557/469 503/558/470 491/545/458
f 491/545/458 503/558/470 504/559/471 492/546/459
f 492/546/459 504/559/471 493/547/460 481/534/199
f 493/547/460 505/560/223 506/561/472 494/548/461
f 494/548/461 506/561/472 507/562/473 495/549/462
f 495/549/462 507/562/473 508/563/474 496/550/463
f 496/550/463 508/563/474 509/564/475 497/551/464
f 497/551/464 509/564/475 510/565/476 498/552/465
f 498/552/465 510/565/476 511/566/217 499/553/466
f 499/554/466 511/567/217 512/568/477 500/555/467
f 500/555/467 512/568/477 513/569/478 501/556/468
f 501/556/468 513/569/478 514/570/479 502/557/469
f 502/557/469 514/570/479 515/571/480 503/558/470
f 503/558/470 515/571/480 516/572/481 504/559/471
f 504/559/471 516/572/481 505/560/223 493/547/460
f 505/560/223 517/573/482 518/574/483 506/561/472
f 506/561/472 518/574/483 519/575/484 507/562/473
f 507/562/473 519/575/484 520/576/485 508/563/474
f 508/563/474 520/576/485 521/577/486 509/564/475
f 509/564/475 521/577/486 522/578/487 510/565/476
f 510/565/476 522/578/487 523/579/488 511/566/217
f 511/567/217 523/580/488 524/581/489 512/568/477
f 512/568/477 524/581/489 525/582/490 513/569/478
f 513/569/478 525/582/490 526/583/491 514/570/479
f 514/570/479 526/583/491 527/584/492 515/571/480
f 515/571/480 527/584/492 528/585/493 516/572/481
f 516/572/481 528/585/493 517/573/482 505/560/223
f 517/573/482 529/586/247 530/587/494 518/574/483
f 518/574/483 530/587/494 531/588/495 519/575/484
f 519/575/484 531/588/495 532/589/496 520/576/485
f 520/576/485 532/589/496 533/590/497 521/577/486
f 521/577/486 533/590/497 534/591/498 522/578/487
f 522/578/487 534/591/498 535/592/241 523/579/488
f 523/580/488 535/593/241 536/594/499 524/581/489
f 524/581/489 536/594/499 537/595/500 525/582/490
f 525/582/490 537/595/500 538/596/501 526/583/491
f 526/583/491 538/596/501 539/597/502 527/584/492
f 527/584/492 539/597/502 540/598/503 528/585/493
f 528/585/493 540/598/503 529/586/247 517/573/482
f 529/586/247 541/599/259 542/600/504 530/587/494
f 530/587/494 542/600/504 543/601/505 531/588/495
f 531/588/495 543/601/505 544/602/506 532/589/496
f 532/589/496 544/602/506 545/603/507 533/590/497
f 533/590/497 545/603/507 546/604/508 534/591/498
f 534/591/498 546/604/508 547/605/253 535/592/241
f 535/593/241 547/606/253 548/607/509 536/594/499
f 536/594/499 548/607/509 549/608/510 537/595/500
f 537/595/500 549/608/510 550/609/511 538/596/501
f 538/596/501 550/609/511 551/610/512 539/597/502
f 539/597/502 551/610/512 552/611/513 540/598/503
f 540/598/503 552/611/513 541/599/259 529/586/247
f 541/599/259 553/612/271 554/613/514 542/600/504
f 542/600/504 554/613/514 555/614/515 543/601/505
f 543/601/505 555/614/515 556/615/516 544/602/506
f 544/602/506 556/615/516 557/616/517 545/603/507
f 545/603/507 557/616/517 558/617/518 546/604/508
f 546/604/508 558/617/518 559/618/265 547/605/253
f 547/606/253 559/619/265 560/620/519 548/607/509
f 548/607/509 560/620/519 561/621/520 549/608/510
f 549/608/510 561/621/520 562/622/521 550/609/511
f 550/609/511 562/622/521 563/623/522 551/610/512
f 551/610/512 563/623/522 564/624/523 552/611/513
f 552/611/513 564/624/523 553/612/271 541/599/259
f 553/612/271 565/625/283 566/626/524 554/613/514
f 554/613/514 566/626/524 567/627/525 555/614/515
f 555/614/515 567/627/525 568/628/526 556/615/516
f 556/615/516 568/628/526 569/629/527 557/616/517
f 557/616/517 569/629/527 570/630/528 558/617/518
f 558/617/518 570/630/528 571/631/277 559/618/265
f 559/619/265 571/632/277 572/633/529 560/620/519
f 560/620/519 572/633/529 573/634/530 561/621/520
f 561/621/520 573/634/530 574/635/531 562/622/521
f 562/622/521 574/635/531 575/636/532 563/623/522
f 563/623/522 575/636/532 576/637/533 564/624/523
f 564/624/523 576/637/533 565/625/283 553/612/271
f 565/625/283 1/1/1 2/4/4 566/626/524
f 566/626/524 2/4/4 3/6/6 567/627/525
f 567/627/525 3/6/6 4/8/8 568/628/526
f 568/628/526 4/8/8 5/10/10 569/629/527
f 569/629/527 5/10/10 6/12/12 570/630/528
f 570/630/528 6/12/12 7/14/14 571/631/277
f 571/632/277 7/15/14 8/18/16 572/633/529
f 572/633/529 8/18/16 9/20/18 573/634/530
f 573/634/530 9/20/18 10/22/20 574/635/531
f 574/635/531 10/22/20 11/24/22 575/636/532
f 575/636/532 11/24/22 12/26/24 576/637/533
f 576/637/533 12/26/24 1/1/1 565/625/283
